# Blender 5.0.1
# www.blender.org
mtllib circ4.mtl
o Sphere.002
v 26.951088 19.148396 -10.935852
v 26.951088 18.679413 -13.114350
v 26.951088 17.917833 -15.122066
v 26.951088 16.892920 -16.881842
v 26.951088 15.644057 -18.326057
v 26.951088 14.219240 -19.399202
v 26.951088 12.673225 -20.060041
v 27.393078 19.148396 -10.892320
v 27.818081 18.679413 -13.028959
v 28.209766 17.917833 -14.998096
v 28.553082 16.892920 -16.724062
v 28.834835 15.644057 -18.140524
v 29.044195 14.219240 -19.193048
v 29.173119 12.673225 -19.841192
v 27.818081 19.148396 -10.763396
v 28.651756 18.679413 -12.776066
v 29.420076 17.917833 -14.630953
v 30.093513 16.892920 -16.256777
v 30.646189 15.644057 -17.591055
v 31.056864 14.219241 -18.582512
v 31.309757 12.673225 -19.193048
v 28.209766 19.148396 -10.554036
v 29.420076 18.679415 -12.365391
v 30.535503 17.917833 -14.034744
v 31.513184 16.892920 -15.497947
v 32.315544 15.644057 -16.698767
v 32.911751 14.219241 -17.591055
v 33.278896 12.673226 -18.140524
v 28.553083 19.148396 -10.272284
v 30.093513 18.679415 -11.812715
v 31.513184 17.917833 -13.232383
v 32.757534 16.892920 -14.476734
v 33.778744 15.644057 -15.497945
v 34.537575 14.219241 -16.256777
v 35.004860 12.673226 -16.724062
v 28.834835 19.148396 -9.928968
v 30.646191 18.679415 -11.139277
v 32.315544 17.917835 -12.254701
v 33.778744 16.892920 -13.232384
v 34.979565 15.644057 -14.034744
v 35.871857 14.219241 -14.630953
v 36.421322 12.673226 -14.998096
v 29.044195 19.148396 -9.537282
v 31.056866 18.679415 -10.370955
v 32.911751 17.917835 -11.139274
v 34.537575 16.892921 -11.812715
v 35.871853 15.644057 -12.365389
v 36.863312 14.219241 -12.776066
v 37.473846 12.673226 -13.028957
v 29.173119 19.148396 -9.112278
v 31.309757 18.679415 -9.537280
v 33.278896 17.917835 -9.928966
v 35.004860 16.892921 -10.272283
v 36.421318 15.644057 -10.554033
v 37.473846 14.219241 -10.763395
v 38.121994 12.673226 -10.892318
v 29.216652 19.148397 -8.670289
v 31.395149 18.679417 -8.670287
v 33.402863 17.917835 -8.670287
v 35.162640 16.892921 -8.670288
v 36.606853 15.644059 -8.670287
v 37.680000 14.219243 -8.670288
v 38.340843 12.673226 -8.670287
v 29.173119 19.148397 -8.228299
v 31.309757 18.679417 -7.803294
v 33.278893 17.917835 -7.411609
v 35.004860 16.892921 -7.068295
v 36.421318 15.644059 -6.786540
v 37.473846 14.219243 -6.577181
v 38.121994 12.673226 -6.448255
v 29.044195 19.148397 -7.803294
v 31.056866 18.679417 -6.969619
v 32.911751 17.917835 -6.201300
v 34.537575 16.892921 -5.527863
v 35.871849 15.644060 -4.975186
v 36.863312 14.219244 -4.564511
v 37.473846 12.673227 -4.311618
v 28.834835 19.148397 -7.411609
v 30.646191 18.679417 -6.201299
v 32.315544 17.917835 -5.085873
v 33.778744 16.892921 -4.108192
v 34.979565 15.644060 -3.305833
v 35.871853 14.219244 -2.709623
v 36.421318 12.673227 -2.342482
v 28.553082 19.148397 -7.068293
v 30.093513 18.679417 -5.527861
v 31.513180 17.917835 -4.108192
v 32.757534 16.892921 -2.863842
v 33.778744 15.644060 -1.842632
v 34.537575 14.219244 -1.083801
v 35.004860 12.673227 -0.616518
v 28.209766 19.148397 -6.786541
v 29.420076 18.679417 -4.975185
v 30.535501 17.917835 -3.305832
v 31.513182 16.892921 -1.842628
v 32.315544 15.644060 -0.641811
v 32.911751 14.219244 0.250477
v 33.278893 12.673227 0.799946
v 27.818081 19.148397 -6.577179
v 28.651756 18.679417 -4.564510
v 29.420074 17.917835 -2.709624
v 30.093513 16.892921 -1.083802
v 30.646189 15.644060 0.250475
v 31.056864 14.219244 1.241934
v 31.309753 12.673227 1.852471
v 27.393076 19.148397 -6.448256
v 27.818081 18.679417 -4.311616
v 28.209764 17.917835 -2.342483
v 28.553082 16.892921 -0.616516
v 28.834833 15.644060 0.799944
v 29.044193 14.219244 1.852470
v 29.173117 12.673227 2.500612
v 26.951088 19.148397 -6.404725
v 26.951088 18.679417 -4.226225
v 26.951086 17.917835 -2.218513
v 26.951088 16.892921 -0.458734
v 26.951088 15.644060 0.985478
v 26.951088 14.219244 2.058624
v 26.951086 12.673227 2.719463
v 26.509098 19.148397 -6.448256
v 26.084093 18.679417 -4.311617
v 25.692408 17.917835 -2.342481
v 25.349092 16.892921 -0.616518
v 25.067341 15.644060 0.799944
v 24.857981 14.219244 1.852470
v 24.729057 12.673227 2.500612
v 26.084095 19.148397 -6.577180
v 25.250418 18.679417 -4.564510
v 24.482098 17.917835 -2.709628
v 23.808662 16.892921 -1.083802
v 23.255987 15.644060 0.250475
v 22.845310 14.219244 1.241934
v 22.592417 12.673227 1.852470
v 25.692408 19.148397 -6.786541
v 24.482098 18.679417 -4.975186
v 23.366673 17.917835 -3.305835
v 22.388992 16.892921 -1.842631
v 21.586632 15.644060 -0.641813
v 20.990425 14.219244 0.250475
v 20.623281 12.673227 0.799944
v 25.349092 19.148397 -7.068294
v 23.808661 18.679417 -5.527863
v 22.388992 17.917835 -4.108195
v 21.144644 16.892921 -2.863842
v 20.123432 15.644060 -1.842632
v 19.364601 14.219244 -1.083803
v 18.897318 12.673227 -0.616518
v 25.067341 19.148397 -7.411609
v 23.255985 18.679417 -6.201300
v 21.586632 17.917835 -5.085875
v 20.123430 16.892921 -4.108192
v 18.922615 15.644060 -3.305831
v 18.030325 14.219244 -2.709623
v 17.480856 12.673227 -2.342483
v 26.951086 19.306751 -8.670288
v 24.857981 19.148397 -7.803295
v 22.845310 18.679417 -6.969620
v 20.990425 17.917835 -6.201302
v 19.364601 16.892921 -5.527863
v 18.030327 15.644060 -4.975187
v 17.038866 14.219244 -4.564511
v 16.428331 12.673227 -4.311621
v 24.729057 19.148397 -8.228299
v 22.592417 18.679417 -7.803295
v 20.623283 17.917835 -7.411611
v 18.897316 16.892921 -7.068294
v 17.480856 15.644059 -6.786541
v 16.428329 14.219243 -6.577181
v 15.780190 12.673226 -6.448258
v 24.685526 19.148397 -8.670288
v 22.507025 18.679417 -8.670288
v 20.499313 17.917835 -8.670288
v 18.739536 16.892921 -8.670287
v 17.295326 15.644059 -8.670288
v 16.222176 14.219243 -8.670288
v 15.561338 12.673226 -8.670288
v 24.729057 19.148396 -9.112277
v 22.592417 18.679415 -9.537281
v 20.623283 17.917835 -9.928967
v 18.897318 16.892921 -10.272283
v 17.480858 15.644057 -10.554033
v 16.428329 14.219241 -10.763395
v 15.780191 12.673226 -10.892319
v 24.857981 19.148396 -9.537281
v 22.845310 18.679415 -10.370955
v 20.990427 17.917835 -11.139274
v 19.364603 16.892921 -11.812713
v 18.030327 15.644057 -12.365388
v 17.038866 14.219241 -12.776064
v 16.428331 12.673226 -13.028957
v 25.067341 19.148396 -9.928967
v 23.255987 18.679415 -11.139274
v 21.586634 17.917835 -12.254701
v 20.123430 16.892920 -13.232382
v 18.922615 15.644057 -14.034742
v 18.030325 14.219241 -14.630950
v 17.480858 12.673226 -14.998093
v 25.349092 19.148396 -10.272284
v 23.808662 18.679415 -11.812713
v 22.388996 17.917833 -13.232381
v 21.144642 16.892920 -14.476732
v 20.123432 15.644057 -15.497942
v 19.364603 14.219241 -16.256773
v 18.897320 12.673226 -16.724058
v 25.692408 19.148396 -10.554034
v 24.482100 18.679415 -12.365389
v 23.366676 17.917833 -14.034741
v 22.388992 16.892920 -15.497943
v 21.586632 15.644057 -16.698763
v 20.990425 14.219241 -17.591051
v 20.623283 12.673226 -18.140520
v 26.084095 19.148396 -10.763394
v 25.250420 18.679413 -12.776064
v 24.482101 17.917833 -14.630947
v 23.808662 16.892920 -16.256773
v 23.255987 15.644057 -17.591051
v 22.845310 14.219241 -18.582508
v 22.592421 12.673225 -19.193045
v 26.509098 19.148396 -10.892318
v 26.084095 18.679413 -13.028956
v 25.692410 17.917833 -14.998091
v 25.349092 16.892920 -16.724058
v 25.067343 15.644057 -18.140516
v 24.857983 14.219240 -19.193045
v 24.729061 12.673225 -19.841185
v 36.093063 13.907031 -12.334365
v 35.923378 13.907031 -13.591709
v 40.086922 13.377362 -13.591709
v 40.906799 13.273061 -13.591709
v 40.906799 13.273061 -9.976690
v 40.906799 13.273061 -8.565635
v 39.515579 13.477931 -8.565635
v 36.601677 13.907031 -8.565635
v 38.806019 13.377360 -16.983545
v 39.738548 13.273061 -17.217274
v 34.721527 13.907029 -15.021824
v 34.070400 13.907029 -15.796618
v 40.149067 13.273061 -15.943266
v 36.411247 13.907031 -9.976690
v 40.906799 13.273061 -11.391577
v 40.167183 13.377362 -9.976690
v 36.220299 13.907031 -11.391577
v 40.906799 13.273061 -12.334365
v 40.135773 13.377362 -11.391577
v 40.114834 13.377362 -12.334365
v 35.227955 13.907031 -14.419210
v 40.468353 13.273061 -14.952381
v 38.774895 13.477931 -14.780084
v 38.395130 13.477931 -15.645497
v 39.296379 13.477931 -13.591709
v 40.198517 13.377362 -8.565635
v 37.906860 13.477931 -16.758184
v 39.454041 13.477931 -9.976690
v 39.392334 13.477931 -11.391577
v 39.351215 13.477931 -12.334365
v 39.606201 13.377362 -14.864664
v 39.256126 13.377360 -15.791670
v 17.820520 13.907031 -12.334365
v 17.990210 13.907031 -13.591709
v 13.826666 13.377362 -13.591709
v 13.006788 13.273061 -13.591709
v 13.006788 13.273061 -9.976690
v 13.006788 13.273061 -8.565635
v 14.398008 13.477931 -8.565635
v 17.311907 13.907031 -8.565635
v 15.107565 13.377360 -16.983545
v 14.175037 13.273061 -17.217274
v 19.192057 13.907029 -15.021824
v 19.843185 13.907029 -15.796618
v 13.764518 13.273061 -15.943266
v 17.502337 13.907031 -9.976690
v 13.006788 13.273061 -11.391577
v 13.746401 13.377362 -9.976690
v 17.693285 13.907031 -11.391577
v 13.006788 13.273061 -12.334365
v 13.777819 13.377362 -11.391577
v 13.798750 13.377362 -12.334365
v 18.685631 13.907031 -14.419210
v 13.445230 13.273061 -14.952381
v 15.138693 13.477931 -14.780084
v 15.518457 13.477931 -15.645497
v 14.617207 13.477931 -13.591709
v 13.715071 13.377362 -8.565635
v 16.006727 13.477931 -16.758184
v 14.459547 13.477931 -9.976690
v 14.521254 13.477931 -11.391577
v 14.562372 13.477931 -12.334365
v 14.307386 13.377362 -14.864664
v 14.657465 13.377360 -15.791670
v 12.908224 12.647017 -8.733310
v 41.014080 12.647017 -8.733310
v 31.865393 14.112876 -6.397908
v 31.572710 14.112877 -5.850334
v 39.686134 12.647018 -2.986675
v 40.166840 12.647018 -4.287280
v 16.710196 12.647018 0.820961
v 16.072227 12.647018 0.043594
v 31.896732 14.112876 -6.456540
v 32.006748 14.112876 -6.662362
v 20.950857 12.647020 3.908948
v 20.019909 12.647018 3.407086
v 31.189968 14.112877 -5.383962
v 30.885204 14.112877 -5.012606
v 30.681738 14.112877 -4.845625
v 30.362246 14.112877 -4.583425
v 25.334208 14.112877 -3.670570
v 23.004307 12.647020 4.680953
v 28.489311 14.112877 -3.631498
v 30.934723 12.647020 4.675880
v 27.330540 14.112877 -3.428330
v 26.976158 14.112877 -3.393426
v 26.275011 14.112877 -3.462482
v 25.043322 12.647020 5.102976
v 23.566418 14.112877 -4.602836
v 18.293480 12.647018 2.245258
v 22.934498 14.112877 -5.174196
v 23.244766 14.112877 -4.866809
v 22.147392 14.112877 -6.284771
v 14.883245 12.647018 -1.711590
v 27.725496 14.112877 -3.467230
v 28.054661 14.112877 -3.499650
v 21.447931 14.112874 -8.921653
v 21.839542 14.112876 -6.902353
v 13.984186 12.647018 -3.627877
v 32.398159 14.112876 -7.843149
v 32.504383 14.112874 -8.921653
v 26.632685 14.112877 -3.427255
v 26.021658 12.647020 5.213489
v 32.083572 14.112876 -6.806091
v 37.146286 12.647018 0.901159
v 31.970943 12.647020 4.361545
v 29.091719 14.112877 -3.814238
v 26.960522 12.647020 5.222301
v 21.982815 12.647020 4.371089
v 24.860598 14.112877 -3.814238
v 17.475834 12.647018 1.574235
v 14.267714 12.647018 -2.829302
v 21.868744 14.112876 -6.806091
v 22.379604 14.112877 -5.850333
v 22.665089 14.112877 -5.502471
v 24.255402 14.112877 -4.137720
v 24.615770 14.112877 -3.945101
v 25.897655 14.112877 -3.499650
v 27.862001 12.647020 5.230895
v 32.891247 12.647020 3.897619
v 29.406126 14.112877 -3.982292
v 33.829895 12.647018 3.424444
v 30.047476 14.112877 -4.325100
v 29.726801 14.112877 -4.153696
v 36.380852 12.647018 1.628080
v 40.502533 12.647018 -5.195525
v 40.795609 12.647017 -6.413412
v 13.578093 12.647018 -4.673601
v 21.711449 14.112876 -7.324619
v 28.865992 12.647020 5.132011
v 31.500500 14.112877 -5.762345
v 13.178246 12.647018 -5.991717
v 34.768536 12.647018 2.951274
v 29.921530 12.647020 4.983225
v 24.011148 12.647020 4.986373
v 19.114288 12.647018 2.918880
v 23.904839 14.112877 -4.325101
v 15.396196 12.647018 -0.780151
v 21.554153 14.112876 -7.843148
v 35.568695 12.647018 2.294603
v 37.810974 12.647018 0.091234
v 38.488243 12.647018 -0.734016
v 39.019073 12.647018 -1.624393
v 39.549194 12.647018 -2.616173
v 28.767818 12.800577 -21.091801
v 26.964758 12.800577 -21.266682
v 27.087896 12.610336 -22.137081
v 31.088230 12.800575 -20.550177
v 29.808516 12.800577 -20.925219
v 33.349277 12.802107 -19.527197
v 32.255875 12.800577 -20.097307
v 35.369476 12.800576 -18.096882
v 34.397804 12.800578 -18.863913
v 36.913422 12.800576 -16.529337
v 36.272179 12.800578 -17.230764
v 37.596569 12.800578 -15.583861
v 16.332947 12.800578 -15.583858
v 17.016094 12.800576 -16.529335
v 18.353909 12.800578 -17.908144
v 17.474234 12.800578 -17.030478
v 20.370377 12.800577 -19.405725
v 19.324078 12.800578 -18.705965
v 22.640265 12.800577 -20.481142
v 21.476723 12.800577 -19.999033
v 24.763981 12.800577 -21.052629
v 23.912783 12.800577 -20.856550
v 27.861532 13.465558 -17.769629
v 26.978577 13.465558 -17.856592
v 29.014954 13.465558 -17.492498
v 28.386822 13.465558 -17.683527
v 30.133163 13.467088 -16.983665
v 29.598200 13.465558 -17.272987
v 31.124630 13.465558 -16.281546
v 30.660713 13.465558 -16.662271
v 31.870111 13.465558 -15.512451
v 31.590595 13.465558 -15.853042
v 32.265495 13.465558 -15.030678
v 21.691660 13.465558 -15.030676
v 22.087040 13.465558 -15.512449
v 22.720453 13.465558 -16.187460
v 22.286743 13.465558 -15.755789
v 23.717127 13.465558 -16.928074
v 23.201069 13.465558 -16.584002
v 24.839136 13.465558 -17.460016
v 24.265869 13.465558 -17.223234
v 25.897848 13.465558 -17.750151
v 25.464266 13.465558 -17.650831
v 28.767818 12.610336 -22.137081
v 24.763981 12.610336 -22.137081
v 29.190655 19.359993 -9.116076
v 31.327295 18.891014 -9.541078
v 33.296432 18.129435 -9.932763
v 35.022396 17.104519 -10.276079
v 36.438858 15.855657 -10.557831
v 37.539940 14.464328 -10.758048
v 37.964561 13.586509 -10.861312
v 27.373093 19.489523 -8.754539
v 29.179409 19.359993 -9.324753
v 31.316048 18.891014 -9.749757
v 33.285187 18.129435 -10.141441
v 35.011150 17.104519 -10.484758
v 36.427612 15.855657 -10.766509
v 37.528694 14.464328 -10.966726
v 37.953316 13.586509 -11.069991
v 27.361847 19.489523 -8.963219
v 29.144844 19.284714 -9.106560
v 36.393044 15.780377 -10.548315
v 37.494129 14.389045 -10.748532
v 27.327282 19.414244 -8.745024
v 22.815924 10.780891 -20.050945
v 30.827723 10.780891 -20.050945
v 22.815924 10.780891 -22.898462
v 30.827723 10.780891 -22.898462
v 28.416912 11.436234 -20.050945
v 25.226734 11.436234 -20.050945
v 25.226734 11.436234 -22.938381
v 28.416912 11.436234 -22.938381
v 30.827723 10.780891 -22.282595
v 22.815924 10.780891 -22.282595
v 28.416912 11.436234 -22.313881
v 25.226734 11.436234 -22.313881
v 37.982376 12.928319 -16.638346
v 28.549980 12.290216 -22.020275
v 29.274738 12.290216 -22.020313
v 30.201445 11.802036 -21.850399
v 30.808229 11.802036 -21.686533
v 31.932705 10.819547 -21.268784
v 32.744148 10.817936 -20.901487
v 33.138252 10.818869 -20.695133
v 33.577362 10.819311 -20.455906
v 34.029861 10.819506 -20.197161
v 34.430279 10.819540 -19.951059
v 34.778217 10.819545 -19.724024
v 35.403191 10.819547 -19.281204
v 36.466743 11.802037 -18.403259
v 36.918430 11.802037 -18.001328
v 37.662514 12.589716 -17.048109
v 29.714243 12.058689 -21.939728
v 36.820595 12.978978 -15.978649
v 28.398664 12.263770 -20.806873
v 29.022665 12.263770 -20.798344
v 29.852558 11.826591 -20.646185
v 30.395950 11.826591 -20.499435
v 31.402946 10.946745 -20.125332
v 32.129616 10.945304 -19.796410
v 32.482548 10.946136 -19.611610
v 32.875782 10.946534 -19.397375
v 33.281010 10.946709 -19.165665
v 33.639591 10.946740 -18.945272
v 33.951180 10.946745 -18.741957
v 34.510864 10.946746 -18.345402
v 35.463303 11.826592 -17.559177
v 35.867802 11.826592 -17.199238
v 36.534149 12.675750 -16.345606
v 29.416254 12.056430 -20.726181
v 24.056929 10.464245 -22.987053
v 24.056929 10.464245 -23.668495
v 29.541113 10.464245 -22.987053
v 29.541113 10.464245 -23.668495
v 28.572941 11.388622 -22.809443
v 28.572941 11.388622 -23.309620
v 30.924648 11.388622 -23.309620
v 30.924648 11.388622 -22.809443
v 24.693251 11.972227 -22.829519
v 24.693251 11.972227 -23.289547
v 28.956484 11.972227 -23.289547
v 28.956484 11.972227 -22.829519
v 17.268364 13.202432 -15.957880
v 25.067533 12.269131 -22.030216
v 15.872450 12.814170 -16.546726
v 24.284708 12.261255 -21.987892
v 23.444031 11.780951 -21.850782
v 22.837246 11.780951 -21.686916
v 21.783022 10.798462 -21.269165
v 21.461433 10.795705 -21.114693
v 21.147772 10.797340 -20.939758
v 20.702845 10.798138 -20.691950
v 20.150478 10.798435 -20.364796
v 19.635412 10.798462 -20.048878
v 19.134706 10.798462 -19.723457
v 18.513052 10.798462 -19.281588
v 17.449501 11.780951 -18.403641
v 16.997810 11.780951 -18.001713
v 25.283218 12.243046 -20.737539
v 24.600872 12.236183 -20.700647
v 23.868099 11.817526 -20.581139
v 23.339199 11.817526 -20.438305
v 22.420288 10.961143 -20.074173
v 22.139975 10.958743 -19.939528
v 21.866573 10.960167 -19.787048
v 21.478756 10.960862 -19.571047
v 20.997288 10.961123 -19.285885
v 20.548332 10.961143 -19.010517
v 20.111895 10.961144 -18.726864
v 19.570032 10.961144 -18.341709
v 18.642994 11.817528 -17.576454
v 18.249279 11.817528 -17.226112
v 16.133692 12.654159 -16.884485
v 17.496075 12.818089 -16.252287
v 30.497374 10.840366 -23.309347
v 30.962315 10.840366 -23.309347
v 30.962315 10.840366 -21.575113
v 30.497374 10.840366 -21.575113
v 26.952551 19.750498 -9.542425
v 27.287006 19.750498 -9.475897
v 27.570547 19.750498 -9.286444
v 27.760000 19.750498 -9.002904
v 27.826529 19.750500 -8.668447
v 27.760000 19.750500 -8.333991
v 27.570547 19.750500 -8.050451
v 27.287006 19.750500 -7.860997
v 26.952551 19.750500 -7.794468
v 26.618093 19.750500 -7.860997
v 26.334555 19.750500 -8.050451
v 26.145100 19.750500 -8.333990
v 26.078571 19.750500 -8.668447
v 26.145100 19.750498 -9.002904
v 26.334555 19.750498 -9.286444
v 26.618093 19.750498 -9.475897
v 26.952551 20.121176 -8.741991
v 26.980694 20.121176 -8.736393
v 27.004555 20.121176 -8.720449
v 27.020496 20.121176 -8.696590
v 27.026094 20.121176 -8.668447
v 27.020496 20.121176 -8.640303
v 27.004555 20.121176 -8.616444
v 26.980694 20.121176 -8.600501
v 26.952551 20.121176 -8.594903
v 26.924406 20.121176 -8.600501
v 26.900547 20.121176 -8.616444
v 26.884604 20.121176 -8.640303
v 26.879005 20.121176 -8.668447
v 26.884604 20.121176 -8.696590
v 26.900547 20.121176 -8.720449
v 26.924406 20.121176 -8.736393
v 26.952551 21.811972 -8.668447
v 24.120169 10.628405 -23.379066
v 24.137413 10.640336 -23.388481
v 24.120277 10.755692 -23.196449
v 24.137775 10.767623 -23.205385
v 25.014868 10.455879 -23.619671
v 25.014992 10.624371 -23.376863
v 25.026205 10.463699 -23.625778
v 25.026295 10.632193 -23.383034
v 25.005722 10.628405 -23.379066
v 25.022964 10.640336 -23.388481
v 25.005831 10.755692 -23.196449
v 25.023327 10.767623 -23.205385
v 25.926773 10.462444 -23.625797
v 25.926861 10.630936 -23.383139
v 25.911757 10.463699 -23.625778
v 25.911848 10.632193 -23.383034
v 25.931423 10.638420 -23.388638
v 25.908518 10.640336 -23.388481
v 25.931782 10.765707 -23.204912
v 25.908878 10.767623 -23.205385
v 26.832125 10.623777 -23.379444
v 26.816975 10.638420 -23.388638
v 26.832224 10.751066 -23.195307
v 26.817333 10.765707 -23.204912
v 28.547930 10.628405 -23.379066
v 28.565174 10.640336 -23.388481
v 28.548038 10.755692 -23.196449
v 28.565535 10.767623 -23.205385
v 29.468981 10.462444 -23.625797
v 29.469070 10.630936 -23.383139
v 29.453964 10.463699 -23.625778
v 29.454056 10.632193 -23.383034
v 29.473633 10.638420 -23.388638
v 29.450726 10.640336 -23.388481
v 29.473989 10.765707 -23.204912
v 29.451088 10.767623 -23.205385
v 22.731535 11.388622 -22.809443
v 22.731535 11.388622 -23.309620
v 25.083244 11.388622 -23.309620
v 25.083244 11.388622 -22.809443
v 22.698353 10.840366 -23.319246
v 23.163292 10.840366 -23.319246
v 23.163292 10.840366 -21.585011
v 22.698353 10.840366 -21.585011
v 22.833788 12.808876 4.661430
v 22.844809 12.794952 4.657127
v 22.848528 12.829062 4.616355
v 22.858425 12.813894 4.615478
v 22.831160 12.829062 4.610674
v 22.823692 12.813894 4.604118
v 22.847027 12.832756 4.562155
v 22.838215 12.816936 4.559711
v 23.064850 12.808876 4.735808
v 23.058502 12.794952 4.725817
v 23.079590 12.829062 4.690730
v 23.072121 12.813894 4.684177
v 23.128109 12.817060 4.601145
v 23.134283 12.803450 4.611659
v 23.142721 12.779493 4.556460
v 23.147190 12.771334 4.572188
v 40.969044 13.319491 -13.261635
v 40.968708 13.319491 -13.243365
v 40.953083 13.379682 -13.261927
v 40.952744 13.379682 -13.243659
v 40.908295 13.435893 -13.262753
v 40.907959 13.435893 -13.244483
v 40.860878 13.456079 -13.263624
v 40.860542 13.456079 -13.245355
v 40.856468 13.440911 -13.236291
v 40.809509 13.459773 -13.246293
v 40.809753 13.443954 -13.237150
v 40.760334 13.444076 -13.247197
v 40.768238 13.430465 -13.237914
v 40.713333 13.406510 -13.248061
v 40.726719 13.398351 -13.238677
v 40.955677 13.319491 -13.477103
v 40.971329 13.319491 -13.467678
v 40.955368 13.379682 -13.467971
v 40.943840 13.369861 -13.477323
v 40.910583 13.435893 -13.468795
v 40.903236 13.421969 -13.478067
v 40.863167 13.456079 -13.469666
v 40.859428 13.440911 -13.478873
v 40.812134 13.459773 -13.470605
v 40.811798 13.459773 -13.452335
v 40.762955 13.444076 -13.471509
v 40.762619 13.444076 -13.453239
v 40.715950 13.406510 -13.472373
v 40.715614 13.406510 -13.454103
v 39.979912 13.078160 -8.378086
v 40.005821 13.078160 -8.352180
v 40.005821 13.078160 -8.281402
v 39.979912 13.078160 -8.255493
v 39.909134 13.078160 -8.255493
v 39.883224 13.078160 -8.281402
v 39.883224 13.078160 -8.352180
v 39.909134 13.078160 -8.378086
v 39.944527 13.155755 -8.316791
v 38.690552 13.244273 -6.935163
v 38.725937 13.244273 -6.925681
v 38.751846 13.244273 -6.828995
v 38.725937 13.244273 -6.803088
v 38.629250 13.244273 -6.828995
v 38.619770 13.244273 -6.864385
v 38.690552 13.321868 -6.864385
v 36.768661 13.272633 -1.950882
v 37.012360 13.272633 -2.304699
v 36.994499 13.272633 -1.795328
v 37.238205 13.272633 -2.149143
v 37.125282 13.373533 -2.226921
v 36.881580 13.373533 -1.873106
v 31.620285 13.074661 2.905282
v 31.627323 13.002224 2.833188
v 31.629244 12.954493 2.813510
v 31.629900 12.903271 2.806796
v 31.640469 13.094433 2.962107
v 31.668238 13.074661 2.923284
v 31.692085 13.043211 2.889948
v 31.710382 13.002224 2.864368
v 31.721884 12.954493 2.848289
v 31.725807 12.903271 2.842803
v 31.700766 13.074661 2.962854
v 31.738087 13.043211 2.945904
v 31.610668 13.101177 3.003768
v 31.520571 13.074661 3.044683
v 31.483250 13.043211 3.061628
v 31.559689 13.094433 2.998789
v 31.512184 13.074661 2.994151
v 31.471390 13.043211 2.990169
v 31.440086 13.002224 2.987113
v 31.569008 13.094433 2.973968
v 31.530186 13.074661 2.946199
v 31.496849 13.043211 2.922351
v 31.471268 13.002224 2.904051
v 31.569754 13.074661 2.913671
v 31.552807 13.043211 2.876350
v 31.539801 13.002224 2.847713
v 31.531626 12.954493 2.829711
v 31.615646 13.094433 2.952788
v 31.624268 13.043211 2.864490
v 23.058247 13.074661 3.171249
v 23.114239 13.002224 3.125291
v 23.129522 12.954493 3.112747
v 23.032295 13.094433 3.225683
v 23.079388 13.074661 3.217901
v 23.119827 13.043211 3.211225
v 23.150860 13.002224 3.206102
v 23.170364 12.954493 3.202880
v 23.112732 13.043211 3.283312
v 23.142168 13.002224 3.294393
v 22.981758 13.101177 3.234030
v 22.821346 13.002224 3.173665
v 22.802843 12.954493 3.166700
v 22.918978 13.074661 3.157539
v 22.892975 13.043211 3.125860
v 22.873020 13.002224 3.101545
v 22.860477 12.954493 3.086265
v 22.973412 13.094433 3.183489
v 22.965633 13.074661 3.136397
v 22.958954 13.043211 3.095957
v 22.953829 13.002224 3.064929
v 22.950607 12.954493 3.045420
v 22.999798 13.094433 3.186088
v 23.016609 13.074661 3.141416
v 23.031046 13.043211 3.103053
v 23.042122 13.002224 3.073619
v 23.049084 12.954493 3.055113
v 23.021351 13.094433 3.201532
v 23.089928 13.043211 3.145243
v 16.832632 13.272633 -2.626009
v 17.081440 13.272633 -2.275768
v 16.609070 13.272633 -2.467192
v 16.857882 13.272633 -2.116951
v 16.969662 13.373533 -2.196360
v 16.720850 13.373533 -2.546602
v 40.737274 10.613945 -8.961528
v 40.737274 10.613945 -9.865036
v 41.243004 10.613945 -8.961528
v 41.243004 10.613945 -9.865036
v 41.207829 10.611025 -9.777154
v 40.965172 10.779515 -9.777065
v 41.207809 10.612280 -9.792169
v 40.965065 10.780770 -9.792079
v 40.970673 10.786999 -9.772502
v 40.970512 10.788917 -9.795409
v 40.786945 10.914287 -9.772146
v 40.787418 10.916203 -9.795049
v 41.207829 10.611025 -9.034432
v 40.965172 10.779515 -9.034345
v 41.207809 10.612280 -9.049448
v 40.965065 10.780770 -9.049357
v 40.970673 10.786999 -9.029782
v 40.970512 10.788917 -9.052688
v 40.786945 10.914287 -9.029426
v 40.787418 10.916203 -9.052327
v 39.618896 10.613946 -3.106139
v 39.982788 10.613946 -4.077420
v 40.047661 10.613946 -2.945500
v 40.411552 10.613946 -3.916781
v 40.319618 10.605209 -3.800804
v 40.102276 10.773700 -3.883760
v 40.324455 10.606466 -3.813509
v 40.107040 10.774956 -3.896495
v 40.110130 10.771168 -3.915254
v 40.112991 10.783100 -3.897447
v 39.855766 10.963605 -4.010105
v 39.858116 10.975536 -3.992249
v 40.032745 10.605209 -3.050006
v 39.815407 10.773700 -3.132960
v 40.024101 10.595613 -3.043718
v 39.806801 10.764104 -3.126624
v 39.818863 10.781185 -3.127221
v 39.826118 10.783100 -3.146649
v 39.563423 10.973621 -3.222243
v 39.571243 10.975536 -3.241452
v 13.970926 10.655869 -3.996421
v 14.304723 10.655869 -3.014390
v 13.537418 10.655869 -3.849069
v 13.871214 10.655869 -2.867036
v 13.868872 10.647133 -3.015015
v 14.089584 10.815622 -3.088523
v 13.873180 10.648388 -3.002122
v 14.093969 10.816879 -3.075656
v 14.083281 10.823107 -3.090779
v 14.089968 10.825023 -3.071149
v 14.341114 11.015543 -3.179091
v 14.347227 11.017459 -3.159274
v 13.615166 10.647133 -3.777659
v 13.835878 10.815622 -3.851169
v 13.617870 10.637535 -3.788002
v 13.838520 10.806026 -3.861524
v 13.628267 10.640567 -3.756873
v 13.849106 10.809057 -3.830459
v 13.619474 10.648388 -3.764766
v 13.840261 10.816879 -3.838301
v 13.849754 10.813091 -3.821828
v 13.836260 10.825023 -3.833794
v 14.106653 11.005527 -3.909593
v 14.093521 11.017459 -3.921917
v 13.752619 13.078160 -8.378086
v 13.778528 13.078160 -8.352180
v 13.778528 13.078160 -8.281402
v 13.752619 13.078160 -8.255493
v 13.681841 13.078160 -8.255493
v 13.655931 13.078160 -8.281402
v 13.655931 13.078160 -8.352180
v 13.681841 13.078160 -8.378086
v 13.717230 13.155755 -8.316791
v 15.267923 13.244273 -6.935163
v 15.338701 13.244273 -6.864385
v 15.329220 13.244273 -6.828995
v 15.206625 13.244273 -6.828995
v 15.197144 13.244273 -6.864385
v 15.232533 13.244273 -6.925681
v 15.267923 13.321868 -6.864385
v 12.895632 13.379682 -13.469703
v 12.907492 13.369861 -13.478621
v 12.940416 13.435893 -13.468879
v 12.948101 13.421969 -13.477875
v 12.987833 13.456079 -13.468007
v 12.991909 13.440911 -13.477070
v 13.038870 13.459773 -13.467069
v 13.038626 13.443954 -13.476212
v 13.088043 13.444076 -13.466166
v 13.080141 13.430465 -13.475448
v 13.135048 13.406510 -13.465299
v 13.121660 13.398351 -13.474685
v 13.155762 13.345902 -13.464919
v 13.140213 13.344073 -13.474343
v 12.893007 13.379682 -13.245390
v 12.893343 13.379682 -13.263659
v 12.937792 13.435893 -13.244566
v 12.938128 13.435893 -13.262836
v 12.985209 13.456079 -13.243694
v 12.985544 13.456079 -13.261964
v 13.036245 13.459773 -13.242757
v 13.036583 13.459773 -13.261025
v 13.085421 13.444076 -13.241853
v 13.085756 13.444076 -13.260122
v 13.132425 13.406510 -13.240988
v 13.132761 13.406510 -13.259258
v 13.153139 13.345902 -13.240607
v 13.153475 13.345902 -13.258877
v 13.126253 10.651517 -9.953209
v 13.127996 10.651517 -8.915998
v 12.668385 10.651517 -9.952440
v 12.670131 10.651517 -8.915228
v 12.721052 10.636214 -9.032277
v 12.953825 10.804706 -9.031268
v 12.715246 10.644036 -9.042570
v 12.947958 10.812526 -9.041530
v 12.951675 10.808739 -9.022883
v 12.942724 10.820672 -9.038543
v 13.223150 11.001176 -9.023761
v 13.214657 11.013106 -9.039643
v 12.719170 10.642779 -9.859892
v 12.951799 10.811270 -9.858851
v 12.725042 10.633183 -9.868823
v 12.957619 10.801674 -9.867815
v 12.946547 10.818756 -9.863008
v 12.946596 10.820672 -9.842269
v 13.219084 11.011191 -9.864102
v 13.218531 11.013106 -9.843369
vn 0.0207 0.9774 -0.2104
vn 0.0349 0.9344 -0.3545
vn 0.0495 0.8631 -0.5027
vn 0.0643 0.7548 -0.6527
vn 0.0784 0.5998 -0.7963
vn 0.0902 0.3914 -0.9158
vn 0.0069 0.9975 -0.0697
vn 0.0203 0.9975 -0.0670
vn 0.0614 0.9774 -0.2023
vn 0.1034 0.9344 -0.3408
vn 0.1466 0.8631 -0.4833
vn 0.1904 0.7548 -0.6277
vn 0.2323 0.5998 -0.7657
vn 0.2671 0.3914 -0.8806
vn 0.2381 0.8631 -0.4455
vn 0.3092 0.7548 -0.5785
vn 0.3772 0.5998 -0.7057
vn 0.4338 0.3914 -0.8115
vn 0.0330 0.9975 -0.0618
vn 0.0997 0.9774 -0.1865
vn 0.1679 0.9344 -0.3141
vn 0.0444 0.9975 -0.0542
vn 0.1341 0.9774 -0.1634
vn 0.2259 0.9344 -0.2753
vn 0.3204 0.8631 -0.3904
vn 0.4161 0.7548 -0.5070
vn 0.5076 0.5998 -0.6185
vn 0.5838 0.3914 -0.7113
vn 0.5070 0.7548 -0.4161
vn 0.6185 0.5998 -0.5076
vn 0.7113 0.3914 -0.5838
vn 0.0542 0.9975 -0.0444
vn 0.1634 0.9774 -0.1341
vn 0.2753 0.9344 -0.2259
vn 0.3904 0.8631 -0.3204
vn 0.1865 0.9774 -0.0997
vn 0.3141 0.9344 -0.1679
vn 0.4455 0.8631 -0.2381
vn 0.5785 0.7548 -0.3092
vn 0.7057 0.5998 -0.3772
vn 0.8115 0.3914 -0.4338
vn 0.0618 0.9975 -0.0330
vn 0.7657 0.5998 -0.2323
vn 0.8806 0.3914 -0.2671
vn 0.0670 0.9975 -0.0203
vn 0.2023 0.9774 -0.0614
vn 0.3408 0.9344 -0.1034
vn 0.4833 0.8631 -0.1466
vn 0.6277 0.7548 -0.1904
vn 0.2104 0.9774 -0.0207
vn 0.3545 0.9344 -0.0349
vn 0.5027 0.8631 -0.0495
vn 0.6527 0.7548 -0.0643
vn 0.7963 0.5998 -0.0784
vn 0.9158 0.3914 -0.0902
vn 0.0697 0.9975 -0.0069
vn 0.7963 0.5998 0.0784
vn 0.9158 0.3914 0.0902
vn 0.0697 0.9975 0.0069
vn 0.2104 0.9774 0.0207
vn 0.3545 0.9344 0.0349
vn 0.5027 0.8631 0.0495
vn 0.6527 0.7548 0.0643
vn 0.3408 0.9344 0.1034
vn 0.4833 0.8631 0.1466
vn 0.6277 0.7548 0.1904
vn 0.7657 0.5998 0.2323
vn 0.8806 0.3914 0.2671
vn 0.0670 0.9975 0.0203
vn 0.2023 0.9774 0.0614
vn 0.8115 0.3914 0.4338
vn 0.0618 0.9975 0.0330
vn 0.1865 0.9774 0.0997
vn 0.3141 0.9344 0.1679
vn 0.4455 0.8631 0.2381
vn 0.5785 0.7548 0.3092
vn 0.7057 0.5998 0.3772
vn 0.2753 0.9344 0.2260
vn 0.3904 0.8631 0.3204
vn 0.5070 0.7548 0.4161
vn 0.6185 0.5998 0.5076
vn 0.7113 0.3914 0.5838
vn 0.0542 0.9975 0.0444
vn 0.1634 0.9774 0.1341
vn 0.5838 0.3914 0.7113
vn 0.0444 0.9975 0.0542
vn 0.1341 0.9774 0.1634
vn 0.2260 0.9344 0.2753
vn 0.3204 0.8631 0.3904
vn 0.4161 0.7548 0.5070
vn 0.5076 0.5998 0.6185
vn 0.2381 0.8631 0.4455
vn 0.3092 0.7548 0.5785
vn 0.3772 0.5998 0.7057
vn 0.4338 0.3914 0.8115
vn 0.0330 0.9975 0.0618
vn 0.0997 0.9774 0.1865
vn 0.1679 0.9344 0.3141
vn 0.0203 0.9975 0.0670
vn 0.0614 0.9774 0.2023
vn 0.1034 0.9344 0.3408
vn 0.1466 0.8631 0.4833
vn 0.1904 0.7548 0.6277
vn 0.2323 0.5998 0.7657
vn 0.2671 0.3914 0.8806
vn 0.0643 0.7548 0.6527
vn 0.0784 0.5998 0.7963
vn 0.0902 0.3914 0.9158
vn 0.0069 0.9975 0.0697
vn 0.0207 0.9774 0.2104
vn 0.0349 0.9344 0.3545
vn 0.0495 0.8631 0.5027
vn -0.0069 0.9975 0.0697
vn -0.0207 0.9774 0.2104
vn -0.0349 0.9344 0.3545
vn -0.0495 0.8631 0.5027
vn -0.0643 0.7548 0.6527
vn -0.0784 0.5998 0.7963
vn -0.0902 0.3914 0.9158
vn -0.1904 0.7548 0.6277
vn -0.2323 0.5998 0.7657
vn -0.2671 0.3914 0.8806
vn -0.0203 0.9975 0.0670
vn -0.0614 0.9774 0.2023
vn -0.1034 0.9344 0.3408
vn -0.1466 0.8631 0.4833
vn -0.0997 0.9774 0.1865
vn -0.1679 0.9344 0.3141
vn -0.2381 0.8631 0.4455
vn -0.3092 0.7548 0.5785
vn -0.3772 0.5998 0.7057
vn -0.4338 0.3914 0.8115
vn -0.0330 0.9975 0.0618
vn -0.5076 0.5998 0.6185
vn -0.5838 0.3914 0.7113
vn -0.0444 0.9975 0.0542
vn -0.1341 0.9774 0.1634
vn -0.2260 0.9344 0.2753
vn -0.3204 0.8631 0.3904
vn -0.4161 0.7548 0.5070
vn -0.1634 0.9774 0.1341
vn -0.2753 0.9344 0.2259
vn -0.3904 0.8631 0.3204
vn -0.5070 0.7548 0.4161
vn -0.6185 0.5998 0.5076
vn -0.7113 0.3914 0.5838
vn -0.0542 0.9975 0.0444
vn -0.7057 0.5998 0.3772
vn -0.8115 0.3914 0.4338
vn -0.0618 0.9975 0.0330
vn -0.1865 0.9774 0.0997
vn -0.3141 0.9344 0.1679
vn -0.4455 0.8631 0.2381
vn -0.5785 0.7548 0.3092
vn -0.3408 0.9344 0.1034
vn -0.4833 0.8631 0.1466
vn -0.6277 0.7548 0.1904
vn -0.7657 0.5998 0.2323
vn -0.8806 0.3914 0.2671
vn -0.0670 0.9975 0.0203
vn -0.2023 0.9774 0.0614
vn -0.9158 0.3914 0.0902
vn -0.0697 0.9975 0.0069
vn -0.2104 0.9774 0.0207
vn -0.3545 0.9344 0.0349
vn -0.5027 0.8631 0.0495
vn -0.6527 0.7548 0.0643
vn -0.7963 0.5998 0.0784
vn -0.5027 0.8631 -0.0495
vn -0.6527 0.7548 -0.0643
vn -0.7963 0.5998 -0.0784
vn -0.9158 0.3914 -0.0902
vn -0.0697 0.9975 -0.0069
vn -0.2104 0.9774 -0.0207
vn -0.3545 0.9344 -0.0349
vn -0.0670 0.9975 -0.0203
vn -0.2023 0.9774 -0.0614
vn -0.3408 0.9344 -0.1034
vn -0.4833 0.8631 -0.1466
vn -0.6277 0.7548 -0.1904
vn -0.7657 0.5998 -0.2323
vn -0.8806 0.3914 -0.2671
vn -0.4455 0.8631 -0.2381
vn -0.5785 0.7548 -0.3092
vn -0.7057 0.5998 -0.3772
vn -0.8115 0.3914 -0.4338
vn -0.0618 0.9975 -0.0330
vn -0.1865 0.9774 -0.0997
vn -0.3141 0.9344 -0.1679
vn -0.0542 0.9975 -0.0444
vn -0.1634 0.9774 -0.1341
vn -0.2753 0.9344 -0.2259
vn -0.3904 0.8631 -0.3204
vn -0.5070 0.7548 -0.4161
vn -0.6185 0.5998 -0.5076
vn -0.7113 0.3914 -0.5838
vn -0.4161 0.7548 -0.5070
vn -0.5076 0.5998 -0.6185
vn -0.5838 0.3914 -0.7113
vn -0.0444 0.9975 -0.0542
vn -0.1341 0.9774 -0.1634
vn -0.2259 0.9344 -0.2753
vn -0.3204 0.8631 -0.3904
vn -0.0330 0.9975 -0.0618
vn -0.0997 0.9774 -0.1865
vn -0.1679 0.9344 -0.3141
vn -0.2381 0.8631 -0.4455
vn -0.3092 0.7548 -0.5785
vn -0.3772 0.5998 -0.7057
vn -0.4338 0.3914 -0.8115
vn -0.1904 0.7548 -0.6277
vn -0.2323 0.5998 -0.7657
vn -0.2671 0.3914 -0.8806
vn -0.0203 0.9975 -0.0670
vn -0.0614 0.9774 -0.2023
vn -0.1034 0.9344 -0.3408
vn -0.1466 0.8631 -0.4833
vn -0.0207 0.9774 -0.2104
vn -0.0349 0.9344 -0.3545
vn -0.0495 0.8631 -0.5027
vn -0.0643 0.7548 -0.6527
vn -0.0784 0.5998 -0.7963
vn -0.0902 0.3914 -0.9158
vn -0.0069 0.9975 -0.0697
vn 0.1426 0.9897 -0.0127
vn 0.1058 0.9937 -0.0369
vn 0.1368 0.9905 -0.0122
vn 0.1323 0.9911 -0.0118
vn 0.1283 0.9917 -0.0115
vn 0.1208 0.9918 -0.0422
vn 0.1126 0.9929 -0.0393
vn 0.1089 0.9919 -0.0658
vn 0.1191 0.9903 -0.0719
vn 0.1283 0.9917 -0.0042
vn 0.1323 0.9912 -0.0044
vn 0.1368 0.9906 -0.0045
vn 0.1007 0.9931 -0.0608
vn 0.1426 0.9898 -0.0047
vn 0.1426 0.9898 -0.0016
vn 0.1368 0.9906 -0.0015
vn 0.1323 0.9912 -0.0015
vn 0.1283 0.9917 -0.0014
vn 0.1118 0.9927 -0.0455
vn 0.1204 0.9915 -0.0490
vn 0.1046 0.9936 -0.0426
vn -0.1426 0.9897 -0.0127
vn -0.1058 0.9937 -0.0369
vn -0.1368 0.9905 -0.0122
vn -0.1323 0.9911 -0.0118
vn -0.1283 0.9917 -0.0115
vn -0.1208 0.9918 -0.0422
vn -0.1126 0.9929 -0.0393
vn -0.1089 0.9919 -0.0658
vn -0.1191 0.9903 -0.0719
vn -0.1283 0.9917 -0.0042
vn -0.1323 0.9912 -0.0044
vn -0.1368 0.9906 -0.0045
vn -0.1007 0.9931 -0.0608
vn -0.1426 0.9898 -0.0047
vn -0.1426 0.9898 -0.0016
vn -0.1368 0.9906 -0.0015
vn -0.1323 0.9912 -0.0015
vn -0.1283 0.9917 -0.0014
vn -0.1118 0.9927 -0.0455
vn -0.1204 0.9915 -0.0490
vn -0.1046 0.9936 -0.0426
vn 0.1138 0.9858 0.1234
vn -0.0484 0.9860 0.1596
vn -0.1606 0.9854 0.0561
vn 0.1592 0.9853 0.0624
vn 0.0216 0.9860 0.1654
vn -0.1175 0.9859 0.1191
vn 0.1693 0.9854 0.0162
vn 0.0764 0.9859 0.1492
vn -0.0704 0.9859 0.1515
vn -0.1688 0.9855 0.0166
vn 0.1435 0.9857 0.0884
vn -0.0056 0.9859 0.1673
vn -0.1481 0.9857 0.0808
vn 0.1638 0.9855 0.0441
vn 0.0484 0.9860 0.1597
vn -0.1061 0.9859 0.1293
vn -0.1617 0.9856 0.0490
vn -0.1592 0.9855 0.0579
vn -0.1480 0.9857 0.0807
vn -0.1297 0.9858 0.1064
vn -0.0791 0.9859 0.1472
vn -0.0791 0.9859 0.1471
vn -0.0181 0.9859 0.1662
vn -0.0181 0.9860 0.1661
vn 0.0035 0.9859 0.1672
vn 0.0163 0.9860 0.1659
vn 0.0766 0.9858 0.1496
vn 0.0765 0.9858 0.1494
vn 0.1064 0.9858 0.1296
vn 0.1300 0.9858 0.1067
vn 0.1489 0.9856 0.0796
vn 0.1584 0.9854 0.0621
vn 0.1577 0.9855 0.0619
vn -0.1079 0.9883 -0.1082
vn 0.1111 0.9890 -0.0982
vn -0.0421 0.9822 -0.1833
vn 0.0804 0.9845 -0.1559
vn 0.0187 0.9813 -0.1914
vn -0.0929 0.9859 -0.1391
vn -0.1133 0.9899 -0.0856
vn 0.1009 0.9869 -0.1262
vn -0.0689 0.9836 -0.1664
vn 0.0529 0.9826 -0.1781
vn 0.0304 0.9817 -0.1881
vn -0.0091 0.9814 -0.1916
vn -0.0187 0.9814 -0.1912
vn 0.0098 0.9809 -0.1942
vn 0.1068 0.9878 -0.1129
vn 0.1139 0.9898 -0.0860
vn 0.0911 0.9856 -0.1427
vn 0.0652 0.9833 -0.1699
vn -0.0531 0.9826 -0.1779
vn -0.0823 0.9848 -0.1532
vn -0.1017 0.9871 -0.1235
vn -0.1105 0.9891 -0.0976
vn 0.2122 0.9772 -0.0114
vn 0.8969 0.4395 -0.0483
vn 0.6570 0.7531 -0.0354
vn 0.6567 0.7532 -0.0379
vn 0.6551 0.7548 -0.0350
vn 0.3573 0.9338 -0.0193
vn 0.0703 0.9975 -0.0038
vn 0.7821 0.6218 -0.0425
vn 0.7805 0.6237 -0.0421
vn 0.7806 0.6237 -0.0395
vn 0.5064 0.8619 -0.0273
vn 0.1883 0.0065 0.9821
vn 0.1914 0.0069 0.9815
vn 0.1896 0.0087 0.9818
vn 0.1954 0.0050 0.9807
vn -0.2623 0.9650 -0.0000
vn 0.2623 0.9650 -0.0000
vn -0.0000 1.0000 -0.0000
vn 0.0543 0.9951 -0.0832
vn 0.0051 0.9998 -0.0189
vn 0.0572 0.9951 -0.0807
vn 0.0430 0.9949 -0.0907
vn -0.3671 0.8085 -0.4600
vn 0.0447 0.9950 -0.0898
vn 0.0126 0.9998 -0.0141
vn 0.6037 0.7733 0.1937
vn 0.4471 0.8875 0.1114
vn 0.0471 0.9950 -0.0883
vn -0.3032 0.8119 -0.4988
vn 0.0493 0.9950 -0.0869
vn -0.2456 0.8327 -0.4964
vn 0.0521 0.9950 -0.0849
vn -0.0001 0.9998 0.0217
vn 0.3243 0.8009 -0.5034
vn -0.0089 0.9997 0.0217
vn -0.0172 0.9997 -0.0194
vn -0.6150 0.7557 0.2251
vn -0.4751 0.8697 0.1336
vn -0.0567 0.9929 -0.1049
vn 0.2311 0.8066 -0.5440
vn -0.0602 0.9929 -0.1025
vn -0.0620 0.9929 -0.1011
vn -0.0542 0.9928 -0.1065
vn -0.0643 0.9930 -0.0990
vn -0.0585 0.9929 -0.1040
vn -0.0679 0.9931 -0.0955
vn -0.0071 0.9996 -0.0264
vn 0.1069 0.7928 -0.6000
vn -0.4188 0.9043 -0.0833
vn 0.3550 0.9043 0.2372
vn -0.3550 0.9043 -0.2372
vn 0.2372 0.9043 0.3550
vn -0.2372 0.9043 -0.3550
vn 0.0833 0.9043 0.4188
vn 0.0833 0.9043 -0.4188
vn -0.0833 0.9043 -0.4188
vn -0.0833 0.9043 0.4188
vn 0.2372 0.9043 -0.3550
vn -0.2372 0.9043 0.3550
vn 0.3550 0.9043 -0.2372
vn -0.3550 0.9043 0.2372
vn 0.4188 0.9043 -0.0833
vn -0.4188 0.9043 0.0833
vn 0.4188 0.9043 0.0833
vn -0.9799 0.0426 0.1949
vn 0.9799 0.0426 0.1949
vn 0.1949 0.0426 -0.9799
vn -0.6544 0.6209 -0.4315
vn -0.6593 0.6178 -0.4285
vn -0.6544 0.6210 -0.4314
vn 0.0662 0.8196 -0.5691
vn 0.0724 0.8193 -0.5688
vn 0.7567 0.5371 -0.3726
vn -0.6545 0.6209 -0.4315
vn 0.0662 0.8196 -0.5690
vn 0.0724 0.8193 -0.5687
vn 0.7586 0.4640 0.4574
vn -0.8307 0.5046 -0.2351
vn -0.8823 0.4640 -0.0791
vn 0.9141 0.4040 -0.0356
vn 0.9664 0.2564 0.0179
vn 0.3916 0.9201 0.0072
vn 0.0189 0.5047 0.8631
vn -0.3337 0.4040 0.8517
vn 0.5315 0.1297 -0.8371
vn 0.2148 0.4640 -0.8594
vn -0.3040 0.9527 -0.0056
vn -0.6241 0.7812 -0.0115
vn -0.5305 0.6611 -0.5306
vn -0.5305 0.6611 0.5305
vn 0.5306 0.6610 0.5306
vn 0.5305 0.6611 -0.5306
vn 0.1942 0.6611 -0.7248
vn 0.5305 0.6611 0.5306
vn -0.7248 0.6611 0.1942
vn -0.4881 0.8054 -0.3362
vn 0.4881 0.8054 0.3362
vn 0.1385 0.9191 -0.3690
vn 0.3487 0.1262 -0.9287
vn 0.2823 0.5955 -0.7521
vn 0.4805 0.7830 -0.3950
vn -0.6136 0.7830 0.1018
vn -0.1265 0.9908 -0.0475
vn -0.7521 0.5955 -0.2823
vn -0.3950 0.7830 -0.4805
vn -0.1520 0.3715 -0.9159
vn 0.3590 0.9191 -0.1627
vn 0.8457 0.3715 -0.3832
vn 0.7995 0.5955 0.0787
vn -0.7547 0.3714 -0.5408
vn -0.3832 0.3715 -0.8457
vn -0.2568 0.7830 -0.5665
vn 0.0787 0.5954 -0.7995
vn 0.0386 0.9191 -0.3922
vn 0.3623 0.7830 -0.5056
vn 0.0787 0.9908 -0.1098
vn 0.5407 0.3715 -0.7547
vn 0.4832 0.8054 -0.3433
vn -0.4832 0.8054 0.3433
vn 0.5690 0.8197 0.0661
vn 0.5687 0.8193 0.0725
vn 0.5691 0.8196 0.0661
vn 0.5206 0.8078 0.2763
vn 0.6341 0.5966 -0.4919
vn 0.0650 0.5069 0.8595
vn 0.5097 0.8137 0.2795
vn -0.5779 0.8078 0.1162
vn -0.5715 0.8137 0.1064
vn -0.5949 0.5070 -0.6238
vn -0.1843 0.5860 0.7891
vn -0.1790 0.5966 0.7823
vn -0.5306 0.6611 0.5305
vn 0.5306 0.6611 0.5305
vn 0.7248 0.6611 0.1942
vn -0.1942 0.6611 -0.7247
vn -0.3948 0.3237 -0.8598
vn -0.0189 0.5047 -0.8631
vn 0.1727 0.4879 -0.8557
vn 0.4970 0.1645 -0.8520
vn -0.7819 0.6232 -0.0144
vn -0.0722 0.9974 -0.0013
vn 0.3040 0.9527 0.0056
vn 0.9461 0.3235 0.0174
vn -0.4272 0.5860 0.6886
vn -0.4201 0.5966 0.6838
vn -0.3638 0.5070 -0.7814
vn -0.5755 0.8137 -0.0822
vt 0.750000 0.875000
vt 0.750000 0.937500
vt 0.718750 0.937500
vt 0.718750 0.875000
vt 0.750000 0.812500
vt 0.718750 0.812500
vt 0.750000 0.750000
vt 0.718750 0.750000
vt 0.750000 0.687500
vt 0.718750 0.687500
vt 0.750000 0.625000
vt 0.718750 0.625000
vt 0.750000 0.562500
vt 0.718750 0.562500
vt 0.734375 1.000000
vt 0.703125 1.000000
vt 0.687500 0.937500
vt 0.687500 0.875000
vt 0.687500 0.812500
vt 0.687500 0.750000
vt 0.687500 0.687500
vt 0.687500 0.625000
vt 0.687500 0.562500
vt 0.656250 0.812500
vt 0.656250 0.750000
vt 0.656250 0.687500
vt 0.656250 0.625000
vt 0.656250 0.562500
vt 0.671875 1.000000
vt 0.656250 0.937500
vt 0.656250 0.875000
vt 0.640625 1.000000
vt 0.625000 0.937500
vt 0.625000 0.875000
vt 0.625000 0.812500
vt 0.625000 0.750000
vt 0.625000 0.687500
vt 0.625000 0.625000
vt 0.625000 0.562500
vt 0.593750 0.750000
vt 0.593750 0.687500
vt 0.593750 0.625000
vt 0.593750 0.562500
vt 0.609375 1.000000
vt 0.593750 0.937500
vt 0.593750 0.875000
vt 0.593750 0.812500
vt 0.562500 0.937500
vt 0.562500 0.875000
vt 0.562500 0.812500
vt 0.562500 0.750000
vt 0.562500 0.687500
vt 0.562500 0.625000
vt 0.562500 0.562500
vt 0.578125 1.000000
vt 0.531250 0.687500
vt 0.531250 0.625000
vt 0.531250 0.562500
vt 0.546875 1.000000
vt 0.531250 0.937500
vt 0.531250 0.875000
vt 0.531250 0.812500
vt 0.531250 0.750000
vt 0.500000 0.937500
vt 0.500000 0.875000
vt 0.500000 0.812500
vt 0.500000 0.750000
vt 0.500000 0.687500
vt 0.500000 0.625000
vt 0.500000 0.562500
vt 0.515625 1.000000
vt 0.468750 0.687500
vt 0.468750 0.625000
vt 0.468750 0.562500
vt 0.484375 1.000000
vt 0.468750 0.937500
vt 0.468750 0.875000
vt 0.468750 0.812500
vt 0.468750 0.750000
vt 0.437500 0.875000
vt 0.437500 0.812500
vt 0.437500 0.750000
vt 0.437500 0.687500
vt 0.437500 0.625000
vt 0.437500 0.562500
vt 0.453125 1.000000
vt 0.437500 0.937500
vt 0.406250 0.625000
vt 0.406250 0.562500
vt 0.421875 1.000000
vt 0.406250 0.937500
vt 0.406250 0.875000
vt 0.406250 0.812500
vt 0.406250 0.750000
vt 0.406250 0.687500
vt 0.375000 0.875000
vt 0.375000 0.812500
vt 0.375000 0.750000
vt 0.375000 0.687500
vt 0.375000 0.625000
vt 0.375000 0.562500
vt 0.390625 1.000000
vt 0.375000 0.937500
vt 0.343750 0.625000
vt 0.343750 0.562500
vt 0.359375 1.000000
vt 0.343750 0.937500
vt 0.343750 0.875000
vt 0.343750 0.812500
vt 0.343750 0.750000
vt 0.343750 0.687500
vt 0.312500 0.812500
vt 0.312500 0.750000
vt 0.312500 0.687500
vt 0.312500 0.625000
vt 0.312500 0.562500
vt 0.328125 1.000000
vt 0.312500 0.937500
vt 0.312500 0.875000
vt 0.296875 1.000000
vt 0.281250 0.937500
vt 0.281250 0.875000
vt 0.281250 0.812500
vt 0.281250 0.750000
vt 0.281250 0.687500
vt 0.281250 0.625000
vt 0.281250 0.562500
vt 0.250000 0.750000
vt 0.250000 0.687500
vt 0.250000 0.625000
vt 0.250000 0.562500
vt 0.265625 1.000000
vt 0.250000 0.937500
vt 0.250000 0.875000
vt 0.250000 0.812500
vt 0.234375 1.000000
vt 0.218750 0.937500
vt 0.218750 0.875000
vt 0.218750 0.812500
vt 0.218750 0.750000
vt 0.218750 0.687500
vt 0.218750 0.625000
vt 0.218750 0.562500
vt 0.187500 0.750000
vt 0.187500 0.687500
vt 0.187500 0.625000
vt 0.187500 0.562500
vt 0.203125 1.000000
vt 0.187500 0.937500
vt 0.187500 0.875000
vt 0.187500 0.812500
vt 0.156250 0.937500
vt 0.156250 0.875000
vt 0.156250 0.812500
vt 0.156250 0.750000
vt 0.156250 0.687500
vt 0.156250 0.625000
vt 0.156250 0.562500
vt 0.171875 1.000000
vt 0.125000 0.687500
vt 0.125000 0.625000
vt 0.125000 0.562500
vt 0.140625 1.000000
vt 0.125000 0.937500
vt 0.125000 0.875000
vt 0.125000 0.812500
vt 0.125000 0.750000
vt 0.093750 0.937500
vt 0.093750 0.875000
vt 0.093750 0.812500
vt 0.093750 0.750000
vt 0.093750 0.687500
vt 0.093750 0.625000
vt 0.093750 0.562500
vt 0.109375 1.000000
vt 0.062500 0.687500
vt 0.062500 0.625000
vt 0.062500 0.562500
vt 0.078125 1.000000
vt 0.062500 0.937500
vt 0.062500 0.875000
vt 0.062500 0.812500
vt 0.062500 0.750000
vt 0.031250 0.875000
vt 0.031250 0.812500
vt 0.031250 0.750000
vt 0.031250 0.687500
vt 0.031250 0.625000
vt 0.031250 0.562500
vt 0.046875 1.000000
vt 0.031250 0.937500
vt 0.000000 0.625000
vt 0.000000 0.562500
vt 0.015625 1.000000
vt 0.000000 0.937500
vt 0.000000 0.875000
vt 0.000000 0.812500
vt 0.000000 0.750000
vt 0.000000 0.687500
vt 1.000000 0.750000
vt 1.000000 0.812500
vt 0.968750 0.812500
vt 0.968750 0.750000
vt 1.000000 0.687500
vt 0.968750 0.687500
vt 1.000000 0.625000
vt 0.968750 0.625000
vt 1.000000 0.562500
vt 0.968750 0.562500
vt 1.000000 0.937500
vt 0.984375 1.000000
vt 0.968750 0.937500
vt 1.000000 0.875000
vt 0.968750 0.875000
vt 0.953125 1.000000
vt 0.937500 0.937500
vt 0.937500 0.875000
vt 0.937500 0.812500
vt 0.937500 0.750000
vt 0.937500 0.687500
vt 0.937500 0.625000
vt 0.937500 0.562500
vt 0.906250 0.812500
vt 0.906250 0.750000
vt 0.906250 0.687500
vt 0.906250 0.625000
vt 0.906250 0.562500
vt 0.921875 1.000000
vt 0.906250 0.937500
vt 0.906250 0.875000
vt 0.890625 1.000000
vt 0.875000 0.937500
vt 0.875000 0.875000
vt 0.875000 0.812500
vt 0.875000 0.750000
vt 0.875000 0.687500
vt 0.875000 0.625000
vt 0.875000 0.562500
vt 0.843750 0.750000
vt 0.843750 0.687500
vt 0.843750 0.625000
vt 0.843750 0.562500
vt 0.859375 1.000000
vt 0.843750 0.937500
vt 0.843750 0.875000
vt 0.843750 0.812500
vt 0.828125 1.000000
vt 0.812500 0.937500
vt 0.812500 0.875000
vt 0.812500 0.812500
vt 0.812500 0.750000
vt 0.812500 0.687500
vt 0.812500 0.625000
vt 0.812500 0.562500
vt 0.781250 0.750000
vt 0.781250 0.687500
vt 0.781250 0.625000
vt 0.781250 0.562500
vt 0.796875 1.000000
vt 0.781250 0.937500
vt 0.781250 0.875000
vt 0.781250 0.812500
vt 0.765625 1.000000
vt 0.705789 0.679813
vt 0.875000 0.679813
vt 0.705789 0.750000
vt 0.666130 0.500000
vt 0.625000 0.500000
vt 0.705789 0.609436
vt 0.875000 0.609436
vt 0.705789 0.562541
vt 0.875000 0.562541
vt 0.705789 0.500000
vt 0.875000 0.500000
vt 0.666130 0.562541
vt 0.666130 0.609436
vt 0.666130 0.679813
vt 0.666130 0.750000
vt 0.625000 0.679813
vt 0.625000 0.609436
vt 0.625000 0.562541
vt 0.617410 1.000000
vt 0.629438 1.000000
vt 0.625000 1.000000
vt 0.454344 1.000000
vt 0.466279 1.000000
vt 0.468750 1.000000
vt 0.451771 1.000000
vt 0.309599 1.000000
vt 0.319322 1.000000
vt 0.312500 1.000000
vt 0.698283 1.000000
vt 0.709312 1.000000
vt 0.687500 1.000000
vt 0.682801 1.000000
vt 0.521712 1.000000
vt 0.533844 1.000000
vt 0.531250 1.000000
vt 0.369385 1.000000
vt 0.375000 1.000000
vt 0.368972 1.000000
vt 0.718750 1.000000
vt 0.750000 1.000000
vt 0.581801 1.000000
vt 0.593750 1.000000
vt 0.583265 1.000000
vt 0.429347 1.000000
vt 0.442236 1.000000
vt 0.437500 1.000000
vt 0.429495 1.000000
vt 0.250000 1.000000
vt 0.281250 1.000000
vt 0.653434 1.000000
vt 0.665234 1.000000
vt 0.656250 1.000000
vt 0.652968 1.000000
vt 0.489261 1.000000
vt 0.500000 1.000000
vt 0.490048 1.000000
vt 0.333813 1.000000
vt 0.345889 1.000000
vt 0.343750 1.000000
vt 0.329545 1.000000
vt 0.545854 1.000000
vt 0.558137 1.000000
vt 0.562500 1.000000
vt 0.544347 1.000000
vt 0.393626 1.000000
vt 0.405671 1.000000
vt 0.406250 1.000000
vt 0.357977 1.000000
vt 0.356726 1.000000
vt 0.381627 1.000000
vt 0.417345 1.000000
vt 0.417712 1.000000
vt 0.478078 1.000000
vt 0.479684 1.000000
vt 0.510268 1.000000
vt 0.569853 1.000000
vt 0.572780 1.000000
vt 0.605492 1.000000
vt 0.641324 1.000000
vt 0.638853 1.000000
vt 0.677991 1.000000
vt 0.674154 1.000000
vt 0.682490 1.000000
vt 0.676071 1.000000
vt 0.117318 1.000000
vt 0.132733 1.000000
vt 0.870421 1.000000
vt 0.027225 1.000000
vt 0.038429 1.000000
vt 0.917195 1.000000
vt 0.932204 1.000000
vt 0.932203 1.000000
vt 0.977757 1.000000
vt 1.000000 1.000000
vt 0.086068 1.000000
vt 0.101693 1.000000
vt 0.156250 1.000000
vt 0.886355 1.000000
vt 0.901400 1.000000
vt 0.901401 1.000000
vt 0.886356 1.000000
vt 0.054818 1.000000
vt 0.070443 1.000000
vt 0.947894 1.000000
vt 0.964355 1.000000
vt 0.000000 1.000000
vt -0.001541 1.000000
vt 0.998457 1.000000
vt 0.843750 1.000000
vt 0.000000 0.000000
vt 0.791667 0.585905
vt 0.875000 0.585905
vt 0.791667 0.750000
vt 0.625000 0.585905
vt 0.708333 0.585905
vt 0.708333 0.750000
vt 0.708333 0.540620
vt 0.791667 0.540620
vt 0.625000 0.540620
vt 0.875000 0.540620
vt 0.455250 0.399200
vt 0.455250 0.389696
vt 0.535500 0.298063
vt 0.535500 0.284174
vt 0.455250 0.416667
vt 0.455250 0.343966
vt 0.455250 0.325117
vt 0.463653 0.441354
vt 0.455250 0.354967
vt 0.495375 0.460757
vt 0.556595 0.273509
vt 0.455250 0.366804
vt 0.597517 0.479785
vt 0.535500 0.460757
vt 0.455250 0.378909
vt 0.624177 0.487964
vt 0.575625 0.263889
vt 0.575625 0.250000
vt 0.535500 0.447823
vt 0.566048 0.266139
vt 0.455250 0.355763
vt 0.455250 0.342612
vt 0.596771 0.479556
vt 0.455250 0.371551
vt 0.455250 0.385607
vt 0.455250 0.331817
vt 0.455250 0.399278
vt 0.615294 0.485239
vt 0.187500 1.000000
vt 0.125000 1.000000
vt 0.062500 1.000000
vt 0.937500 1.000000
vt 0.875000 1.000000
vt 0.812500 1.000000
vt 0.250000 0.500000
vt 0.125000 0.500000
vt 0.000000 0.500000
vt 0.833333 1.000000
vt 0.666667 1.000000
vt 0.083333 1.000000
vt 0.166667 1.000000
vt 0.333333 1.000000
vt 0.416667 1.000000
vt 0.583333 1.000000
vt 0.916667 1.000000
vt 0.625000 0.250000
vt 0.625000 0.000000
vt 0.750000 0.833333
vt 0.750000 0.916667
vt 0.666667 0.916667
vt 0.666667 0.833333
vt 0.750000 0.500000
vt 0.750000 0.583333
vt 0.666667 0.583333
vt 0.666667 0.500000
vt 0.750000 0.666667
vt 0.666667 0.750000
vt 0.666667 0.666667
vt 0.583333 0.833333
vt 0.583333 0.750000
vt 0.083333 0.750000
vt 0.083333 0.833333
vt 0.000000 0.833333
vt 1.000000 0.916667
vt 0.958333 1.000000
vt 0.916667 0.916667
vt 1.000000 0.666667
vt 0.916667 0.750000
vt 0.916667 0.666667
vt 0.916667 0.833333
vt 0.833333 0.833333
vt 0.833333 0.750000
vt 0.833333 0.583333
vt 0.833333 0.666667
vt 0.583333 0.666667
vt 0.083333 0.583333
vt 0.083333 0.666667
vt 0.000000 0.666667
vt 0.000000 0.583333
vt 1.000000 0.583333
vt 0.916667 0.583333
vt 1.000000 0.833333
vt 0.833333 0.916667
vt 0.791667 1.000000
vt 1.000000 0.500000
s 0
usemtl Material.003
f 2/1/1 1/2/1 8/3/1 9/4/1
f 3/5/2 2/1/2 9/4/2 10/6/2
f 4/7/3 3/5/3 10/6/3 11/8/3
f 5/9/4 4/7/4 11/8/4 12/10/4
f 6/11/5 5/9/5 12/10/5 13/12/5
f 7/13/6 6/11/6 13/12/6 14/14/6
f 1/2/7 155/15/7 8/3/7
f 8/3/8 155/16/8 15/17/8
f 9/4/9 8/3/9 15/17/9 16/18/9
f 10/6/10 9/4/10 16/18/10 17/19/10
f 11/8/11 10/6/11 17/19/11 18/20/11
f 12/10/12 11/8/12 18/20/12 19/21/12
f 13/12/13 12/10/13 19/21/13 20/22/13
f 14/14/14 13/12/14 20/22/14 21/23/14
f 18/20/15 17/19/15 24/24/15 25/25/15
f 19/21/16 18/20/16 25/25/16 26/26/16
f 20/22/17 19/21/17 26/26/17 27/27/17
f 21/23/18 20/22/18 27/27/18 28/28/18
f 15/17/19 155/29/19 22/30/19
f 16/18/20 15/17/20 22/30/20 23/31/20
f 17/19/21 16/18/21 23/31/21 24/24/21
f 22/30/22 155/32/22 29/33/22
f 23/31/23 22/30/23 29/33/23 30/34/23
f 24/24/24 23/31/24 30/34/24 31/35/24
f 25/25/25 24/24/25 31/35/25 32/36/25
f 26/26/26 25/25/26 32/36/26 33/37/26
f 27/27/27 26/26/27 33/37/27 34/38/27
f 28/28/28 27/27/28 34/38/28 35/39/28
f 33/37/29 32/36/29 39/40/29 40/41/29
f 34/38/30 33/37/30 40/41/30 41/42/30
f 35/39/31 34/38/31 41/42/31 42/43/31
f 29/33/32 155/44/32 36/45/32
f 30/34/33 29/33/33 36/45/33 37/46/33
f 31/35/34 30/34/34 37/46/34 38/47/34
f 32/36/35 31/35/35 38/47/35 39/40/35
f 37/46/36 36/45/36 43/48/36 44/49/36
f 38/47/37 37/46/37 44/49/37 45/50/37
f 39/40/38 38/47/38 45/50/38 46/51/38
f 40/41/39 39/40/39 46/51/39 47/52/39
f 41/42/40 40/41/40 47/52/40 48/53/40
f 42/43/41 41/42/41 48/53/41 49/54/41
f 36/45/42 155/55/42 43/48/42
f 48/53/43 47/52/43 54/56/43 55/57/43
f 49/54/44 48/53/44 55/57/44 56/58/44
f 43/48/45 155/59/45 50/60/45
f 44/49/46 43/48/46 50/60/46 51/61/46
f 45/50/47 44/49/47 51/61/47 52/62/47
f 46/51/48 45/50/48 52/62/48 53/63/48
f 47/52/49 46/51/49 53/63/49 54/56/49
f 51/61/50 50/60/50 57/64/50 58/65/50
f 52/62/51 51/61/51 58/65/51 59/66/51
f 53/63/52 52/62/52 59/66/52 60/67/52
f 54/56/53 53/63/53 60/67/53 61/68/53
f 55/57/54 54/56/54 61/68/54 62/69/54
f 56/58/55 55/57/55 62/69/55 63/70/55
f 50/60/56 155/71/56 57/64/56
f 62/69/57 61/68/57 68/72/57 69/73/57
f 63/70/58 62/69/58 69/73/58 70/74/58
f 57/64/59 155/75/59 64/76/59
f 58/65/60 57/64/60 64/76/60 65/77/60
f 59/66/61 58/65/61 65/77/61 66/78/61
f 60/67/62 59/66/62 66/78/62 67/79/62
f 61/68/63 60/67/63 67/79/63 68/72/63
f 66/78/64 65/77/64 72/80/64 73/81/64
f 67/79/65 66/78/65 73/81/65 74/82/65
f 68/72/66 67/79/66 74/82/66 75/83/66
f 69/73/67 68/72/67 75/83/67 76/84/67
f 70/74/68 69/73/68 76/84/68 77/85/68
f 64/76/69 155/86/69 71/87/69
f 65/77/70 64/76/70 71/87/70 72/80/70
f 77/85/71 76/84/71 83/88/71 84/89/71
f 71/87/72 155/90/72 78/91/72
f 72/80/73 71/87/73 78/91/73 79/92/73
f 73/81/74 72/80/74 79/92/74 80/93/74
f 74/82/75 73/81/75 80/93/75 81/94/75
f 75/83/76 74/82/76 81/94/76 82/95/76
f 76/84/77 75/83/77 82/95/77 83/88/77
f 80/93/78 79/92/78 86/96/78 87/97/78
f 81/94/79 80/93/79 87/97/79 88/98/79
f 82/95/80 81/94/80 88/98/80 89/99/80
f 83/88/81 82/95/81 89/99/81 90/100/81
f 84/89/82 83/88/82 90/100/82 91/101/82
f 78/91/83 155/102/83 85/103/83
f 79/92/84 78/91/84 85/103/84 86/96/84
f 91/101/85 90/100/85 97/104/85 98/105/85
f 85/103/86 155/106/86 92/107/86
f 86/96/87 85/103/87 92/107/87 93/108/87
f 87/97/88 86/96/88 93/108/88 94/109/88
f 88/98/89 87/97/89 94/109/89 95/110/89
f 89/99/90 88/98/90 95/110/90 96/111/90
f 90/100/91 89/99/91 96/111/91 97/104/91
f 95/110/92 94/109/92 101/112/92 102/113/92
f 96/111/93 95/110/93 102/113/93 103/114/93
f 97/104/94 96/111/94 103/114/94 104/115/94
f 98/105/95 97/104/95 104/115/95 105/116/95
f 92/107/96 155/117/96 99/118/96
f 93/108/97 92/107/97 99/118/97 100/119/97
f 94/109/98 93/108/98 100/119/98 101/112/98
f 99/118/99 155/120/99 106/121/99
f 100/119/100 99/118/100 106/121/100 107/122/100
f 101/112/101 100/119/101 107/122/101 108/123/101
f 102/113/102 101/112/102 108/123/102 109/124/102
f 103/114/103 102/113/103 109/124/103 110/125/103
f 104/115/104 103/114/104 110/125/104 111/126/104
f 105/116/105 104/115/105 111/126/105 112/127/105
f 110/125/106 109/124/106 116/128/106 117/129/106
f 111/126/107 110/125/107 117/129/107 118/130/107
f 112/127/108 111/126/108 118/130/108 119/131/108
f 106/121/109 155/132/109 113/133/109
f 107/122/110 106/121/110 113/133/110 114/134/110
f 108/123/111 107/122/111 114/134/111 115/135/111
f 109/124/112 108/123/112 115/135/112 116/128/112
f 113/133/113 155/136/113 120/137/113
f 114/134/114 113/133/114 120/137/114 121/138/114
f 115/135/115 114/134/115 121/138/115 122/139/115
f 116/128/116 115/135/116 122/139/116 123/140/116
f 117/129/117 116/128/117 123/140/117 124/141/117
f 118/130/118 117/129/118 124/141/118 125/142/118
f 119/131/119 118/130/119 125/142/119 126/143/119
f 124/141/120 123/140/120 130/144/120 131/145/120
f 125/142/121 124/141/121 131/145/121 132/146/121
f 126/143/122 125/142/122 132/146/122 133/147/122
f 120/137/123 155/148/123 127/149/123
f 121/138/124 120/137/124 127/149/124 128/150/124
f 122/139/125 121/138/125 128/150/125 129/151/125
f 123/140/126 122/139/126 129/151/126 130/144/126
f 128/150/127 127/149/127 134/152/127 135/153/127
f 129/151/128 128/150/128 135/153/128 136/154/128
f 130/144/129 129/151/129 136/154/129 137/155/129
f 131/145/130 130/144/130 137/155/130 138/156/130
f 132/146/131 131/145/131 138/156/131 139/157/131
f 133/147/132 132/146/132 139/157/132 140/158/132
f 127/149/133 155/159/133 134/152/133
f 139/157/134 138/156/134 145/160/134 146/161/134
f 140/158/135 139/157/135 146/161/135 147/162/135
f 134/152/136 155/163/136 141/164/136
f 135/153/137 134/152/137 141/164/137 142/165/137
f 136/154/138 135/153/138 142/165/138 143/166/138
f 137/155/139 136/154/139 143/166/139 144/167/139
f 138/156/140 137/155/140 144/167/140 145/160/140
f 142/165/141 141/164/141 148/168/141 149/169/141
f 143/166/142 142/165/142 149/169/142 150/170/142
f 144/167/143 143/166/143 150/170/143 151/171/143
f 145/160/144 144/167/144 151/171/144 152/172/144
f 146/161/145 145/160/145 152/172/145 153/173/145
f 147/162/146 146/161/146 153/173/146 154/174/146
f 141/164/147 155/175/147 148/168/147
f 153/173/148 152/172/148 160/176/148 161/177/148
f 154/174/149 153/173/149 161/177/149 162/178/149
f 148/168/150 155/179/150 156/180/150
f 149/169/151 148/168/151 156/180/151 157/181/151
f 150/170/152 149/169/152 157/181/152 158/182/152
f 151/171/153 150/170/153 158/182/153 159/183/153
f 152/172/154 151/171/154 159/183/154 160/176/154
f 158/182/155 157/181/155 164/184/155 165/185/155
f 159/183/156 158/182/156 165/185/156 166/186/156
f 160/176/157 159/183/157 166/186/157 167/187/157
f 161/177/158 160/176/158 167/187/158 168/188/158
f 162/178/159 161/177/159 168/188/159 169/189/159
f 156/180/160 155/190/160 163/191/160
f 157/181/161 156/180/161 163/191/161 164/184/161
f 169/189/162 168/188/162 175/192/162 176/193/162
f 163/191/163 155/194/163 170/195/163
f 164/184/164 163/191/164 170/195/164 171/196/164
f 165/185/165 164/184/165 171/196/165 172/197/165
f 166/186/166 165/185/166 172/197/166 173/198/166
f 167/187/167 166/186/167 173/198/167 174/199/167
f 168/188/168 167/187/168 174/199/168 175/192/168
f 173/200/169 172/201/169 179/202/169 180/203/169
f 174/204/170 173/200/170 180/203/170 181/205/170
f 175/206/171 174/204/171 181/205/171 182/207/171
f 176/208/172 175/206/172 182/207/172 183/209/172
f 170/210/173 155/211/173 177/212/173
f 171/213/174 170/210/174 177/212/174 178/214/174
f 172/201/175 171/213/175 178/214/175 179/202/175
f 177/212/176 155/215/176 184/216/176
f 178/214/177 177/212/177 184/216/177 185/217/177
f 179/202/178 178/214/178 185/217/178 186/218/178
f 180/203/179 179/202/179 186/218/179 187/219/179
f 181/205/180 180/203/180 187/219/180 188/220/180
f 182/207/181 181/205/181 188/220/181 189/221/181
f 183/209/182 182/207/182 189/221/182 190/222/182
f 187/219/183 186/218/183 193/223/183 194/224/183
f 188/220/184 187/219/184 194/224/184 195/225/184
f 189/221/185 188/220/185 195/225/185 196/226/185
f 190/222/186 189/221/186 196/226/186 197/227/186
f 184/216/187 155/228/187 191/229/187
f 185/217/188 184/216/188 191/229/188 192/230/188
f 186/218/189 185/217/189 192/230/189 193/223/189
f 191/229/190 155/231/190 198/232/190
f 192/230/191 191/229/191 198/232/191 199/233/191
f 193/223/192 192/230/192 199/233/192 200/234/192
f 194/224/193 193/223/193 200/234/193 201/235/193
f 195/225/194 194/224/194 201/235/194 202/236/194
f 196/226/195 195/225/195 202/236/195 203/237/195
f 197/227/196 196/226/196 203/237/196 204/238/196
f 202/236/197 201/235/197 208/239/197 209/240/197
f 203/237/198 202/236/198 209/240/198 210/241/198
f 204/238/199 203/237/199 210/241/199 211/242/199
f 198/232/200 155/243/200 205/244/200
f 199/233/201 198/232/201 205/244/201 206/245/201
f 200/234/202 199/233/202 206/245/202 207/246/202
f 201/235/203 200/234/203 207/246/203 208/239/203
f 205/244/204 155/247/204 212/248/204
f 206/245/205 205/244/205 212/248/205 213/249/205
f 207/246/206 206/245/206 213/249/206 214/250/206
f 208/239/207 207/246/207 214/250/207 215/251/207
f 209/240/208 208/239/208 215/251/208 216/252/208
f 210/241/209 209/240/209 216/252/209 217/253/209
f 211/242/210 210/241/210 217/253/210 218/254/210
f 216/252/211 215/251/211 222/255/211 223/256/211
f 217/253/212 216/252/212 223/256/212 224/257/212
f 218/254/213 217/253/213 224/257/213 225/258/213
f 212/248/214 155/259/214 219/260/214
f 213/249/215 212/248/215 219/260/215 220/261/215
f 214/250/216 213/249/216 220/261/216 221/262/216
f 215/251/217 214/250/217 221/262/217 222/255/217
f 220/261/218 219/260/218 1/2/218 2/1/218
f 221/262/219 220/261/219 2/1/219 3/5/219
f 222/255/220 221/262/220 3/5/220 4/7/220
f 223/256/221 222/255/221 4/7/221 5/9/221
f 224/257/222 223/256/222 5/9/222 6/11/222
f 225/258/223 224/257/223 6/11/223 7/13/223
f 219/260/224 155/263/224 1/2/224
f 253/264/225 239/265/225 233/235/225 232/266/225
f 257/267/226 238/268/226 235/268/226 234/267/226
f 254/269/227 242/270/227 239/265/227 253/264/227
f 255/271/228 226/272/228 242/270/228 254/269/228
f 250/273/229 227/274/229 226/272/229 255/271/229
f 228/267/230 229/268/230 247/268/230 256/267/230
f 256/267/231 247/268/231 238/268/231 257/267/231
f 246/274/232 248/273/232 249/273/232 236/274/232
f 227/274/233 250/273/233 248/273/233 246/274/233
f 228/267/234 250/273/234 255/271/234 245/275/234
f 245/275/235 255/271/235 254/269/235 244/276/235
f 244/276/236 254/269/236 253/264/236 241/277/236
f 236/274/237 249/273/237 252/273/237 237/274/237
f 241/277/238 253/264/238 232/266/238 251/278/238
f 230/279/239 241/277/239 251/278/239 231/36/239
f 240/280/240 244/276/240 241/277/240 230/279/240
f 243/281/241 245/275/241 244/276/241 240/280/241
f 229/268/242 228/267/242 245/275/242 243/281/242
f 248/273/243 256/267/243 257/267/243 249/273/243
f 250/273/244 228/267/244 256/267/244 248/273/244
f 249/273/245 257/267/245 234/267/245 252/273/245
f 285/264/246 264/266/246 265/235/246 271/265/246
f 289/267/247 266/267/247 267/268/247 270/268/247
f 286/269/248 285/264/248 271/265/248 274/270/248
f 287/271/249 286/269/249 274/270/249 258/272/249
f 282/273/250 287/271/250 258/272/250 259/274/250
f 260/267/251 288/267/251 279/268/251 261/268/251
f 288/267/252 289/267/252 270/268/252 279/268/252
f 278/274/253 268/274/253 281/273/253 280/273/253
f 259/274/254 278/274/254 280/273/254 282/273/254
f 260/267/255 277/275/255 287/271/255 282/273/255
f 277/275/256 276/276/256 286/269/256 287/271/256
f 276/276/257 273/277/257 285/264/257 286/269/257
f 268/274/258 269/274/258 284/273/258 281/273/258
f 273/277/259 283/278/259 264/266/259 285/264/259
f 262/279/260 263/36/260 283/278/260 273/277/260
f 272/280/261 262/279/261 273/277/261 276/276/261
f 275/281/262 272/280/262 276/276/262 277/275/262
f 261/268/263 275/281/263 277/275/263 260/267/263
f 280/273/264 281/273/264 289/267/264 288/267/264
f 282/273/265 280/273/265 288/267/265 260/267/265
f 281/273/266 284/273/266 266/267/266 289/267/266
f 350/282/267 330/283/267 303/284/267 304/282/267
f 307/285/268 360/286/268 343/287/268 306/288/268
f 324/289/269 337/290/269 338/291/269 323/289/269
f 295/292/270 351/293/270 329/294/270 299/295/270
f 355/296/271 359/297/271 321/298/271 320/296/271
f 296/299/272 336/300/272 317/300/272 316/301/272
f 352/302/273 291/303/273 326/303/273 325/302/273
f 347/304/274 358/305/274 348/305/274 349/306/274
f 300/307/275 334/308/275 335/309/275 342/310/275
f 290/311/276 357/312/276 364/312/276 322/311/276
f 367/313/277 368/314/277 293/315/277 356/316/277
f 328/317/278 333/318/278 311/318/278 327/319/278
f 319/320/279 363/321/279 339/322/279 318/323/279
f 351/293/280 352/302/280 325/302/280 329/294/280
f 309/324/281 331/325/281 332/326/281 308/327/281
f 315/328/282 361/329/282 362/330/282 314/328/282
f 357/312/283 353/120/283 354/120/283 364/312/283
f 353/120/284 324/289/284 323/289/284 354/120/284
f 337/290/285 319/320/285 318/323/285 338/291/285
f 363/321/286 297/331/286 340/332/286 339/322/286
f 297/331/286 296/299/286 316/301/286 340/332/286
f 336/333/282 315/328/282 314/328/282 317/333/282
f 361/329/287 301/334/287 341/335/287 362/330/287
f 301/334/288 300/307/288 342/310/288 341/335/288
f 334/308/268 307/285/268 306/288/268 335/309/268
f 360/286/289 313/336/289 312/337/289 343/287/289
f 313/336/290 328/317/290 327/319/290 312/337/290
f 333/318/291 344/338/291 310/338/291 311/318/291
f 344/338/292 355/296/292 320/296/292 310/338/292
f 359/297/281 309/324/281 308/327/281 321/298/281
f 331/325/293 345/339/293 346/340/293 332/326/293
f 345/339/294 347/304/294 349/306/294 346/340/294
f 358/305/295 365/341/295 305/341/295 348/305/295
f 365/341/295 350/282/295 304/282/295 305/341/295
f 330/283/296 366/342/296 302/343/296 303/284/296
f 366/342/296 367/313/296 356/316/296 302/343/296
f 368/314/297 369/344/297 292/345/297 293/315/297
f 294/346/298 295/292/298 299/295/298 298/347/298
f 369/344/299 294/346/299 298/347/299 292/345/299
f 384/348/300 385/349/300 406/349/300 405/348/300
f 379/243/301 380/350/301 401/350/301 400/243/301
f 390/351/302 391/352/302 412/352/302 411/351/302
f 375/353/303 376/354/303 397/355/303 396/353/303
f 370/356/304 371/357/304 393/357/304 392/356/304
f 386/358/305 387/359/305 408/359/305 407/358/305
f 383/163/306 382/360/306 403/360/306 404/163/306
f 377/361/307 378/362/307 399/363/307 398/364/307
f 388/365/308 389/366/308 410/366/308 409/365/308
f 373/367/309 374/368/309 395/368/309 394/367/309
f 374/368/310 370/356/310 392/356/310 395/368/310
f 390/351/311 371/369/311 372/370/311 414/351/311
f 371/369/312 390/351/312 411/351/312 393/369/312
f 371/357/313 370/356/313 413/356/313 372/371/313
f 380/350/314 377/361/314 398/364/314 401/350/314
f 381/372/315 379/243/315 400/243/315 402/372/315
f 378/362/316 375/353/316 396/353/316 399/363/316
f 376/354/317 373/367/317 394/367/317 397/355/317
f 391/352/318 388/365/318 409/365/318 412/352/318
f 389/366/319 386/358/319 407/358/319 410/366/319
f 387/359/320 384/348/320 405/348/320 408/359/320
f 385/349/321 383/163/321 404/163/321 406/349/321
f 415/373/322 416/373/322 424/373/322 423/373/322
f 420/373/323 421/373/323 429/373/323 428/373/323
f 418/373/324 419/373/325 427/373/326 426/373/324
f 416/373/327 417/373/327 425/373/327 424/373/327
f 422/373/328 415/373/328 423/373/328 430/373/328
f 419/373/329 420/373/330 428/373/330 427/373/331
f 417/373/332 418/373/332 426/373/332 425/373/332
f 419/373/333 432/373/334 433/373/335 420/373/335
f 422/373/336 434/373/336 431/373/336 415/373/336
f 446/374/337 444/375/337 435/235/337 440/376/337
f 443/377/338 445/378/338 439/379/338 436/36/338
f 445/378/339 446/374/339 440/376/339 439/379/339
f 442/380/339 441/381/339 446/374/339 445/378/339
f 438/382/338 442/380/338 445/378/338 443/377/338
f 441/381/337 437/383/337 444/375/337 446/374/337
f 458/384/340 457/385/340 474/385/340 475/384/340
f 451/386/341 450/387/341 467/387/341 468/386/341
f 459/388/342 458/384/342 475/384/342 476/388/342
f 453/389/343 452/390/343 469/390/343 470/389/343
f 460/391/344 459/388/344 476/388/344 477/391/344
f 454/392/345 453/389/345 470/389/345 471/392/345
f 461/393/346 460/391/346 477/391/346 478/393/346
f 452/390/347 451/386/347 468/386/347 469/390/347
f 450/387/348 463/394/348 480/394/348 467/387/348
f 455/395/349 454/392/349 471/392/349 472/395/349
f 462/396/350 461/397/350 478/397/350 479/396/350
f 456/398/351 455/395/351 472/395/351 473/398/351
f 447/399/352 462/396/352 479/396/352 464/399/352
f 457/385/353 456/398/353 473/398/353 474/385/353
f 449/400/354 448/401/354 465/401/354 466/400/354
f 463/394/348 449/400/348 466/400/348 480/394/348
f 484/268/339 482/274/339 481/235/339 483/36/339
f 487/268/339 486/274/339 485/235/339 488/36/339
f 491/268/339 490/274/339 489/235/339 492/36/339
f 507/402/355 521/402/355 520/388/355 506/388/355
f 496/403/356 510/403/356 509/401/356 494/401/356
f 508/397/357 522/397/357 521/402/357 507/402/357
f 499/390/358 513/390/358 512/386/358 498/386/358
f 497/387/359 511/387/359 510/403/359 496/403/359
f 502/404/360 516/404/360 515/405/360 501/405/360
f 523/406/361 524/406/361 522/397/361 508/397/361
f 503/407/362 517/407/362 516/404/362 502/404/362
f 504/408/363 518/408/363 517/407/363 503/407/363
f 501/405/364 515/405/364 514/409/364 500/409/364
f 505/410/365 519/410/365 518/408/365 504/408/365
f 500/409/366 514/409/366 513/390/366 499/390/366
f 506/388/367 520/388/367 519/410/367 505/410/367
f 498/386/368 512/386/368 511/387/368 497/387/368
f 495/411/369 493/411/369 524/406/369 523/406/369
f 527/268/339 526/274/339 525/235/339 528/36/339
f 542/412/370 541/311/370 557/311/370 558/412/370
f 535/284/371 534/294/371 550/294/371 551/284/371
f 543/413/372 542/412/372 558/412/372 559/413/372
f 536/326/373 535/284/373 551/284/373 552/326/373
f 544/414/374 543/413/374 559/413/374 560/414/374
f 537/318/375 536/326/375 552/326/375 553/318/375
f 530/415/376 529/357/376 545/357/376 546/415/376
f 529/369/377 544/414/377 560/414/377 545/369/377
f 538/309/378 537/318/378 553/318/378 554/309/378
f 531/416/379 530/415/379 546/415/379 547/416/379
f 539/300/380 538/309/380 554/309/380 555/300/380
f 532/417/381 531/416/381 547/416/381 548/417/381
f 540/291/382 539/300/382 555/300/382 556/291/382
f 533/303/383 532/417/383 548/417/383 549/303/383
f 541/311/384 540/291/384 556/291/384 557/311/384
f 534/294/385 533/303/385 549/303/385 550/294/385
f 557/311/386 556/291/386 561/311/386
f 550/294/387 549/303/387 561/294/387
f 546/415/388 545/357/388 561/415/388
f 563/413/389 562/311/389 564/311/389 565/413/389
f 566/418/390 567/311/390 569/413/390 568/419/390
f 571/413/391 570/311/391 572/311/391 573/413/391
f 576/419/392 577/413/392 575/369/392 574/420/392
f 578/369/393 579/413/393 581/413/393 580/369/393
f 582/416/394 583/357/394 585/357/394 584/416/394
f 587/413/395 586/311/395 588/311/395 589/413/395
f 592/419/396 593/413/396 591/369/396 590/420/396
f 594/369/397 595/413/397 597/413/397 596/369/397
f 600/268/339 599/274/339 598/235/339 601/36/339
f 604/268/339 603/274/339 602/235/339 605/36/339
f 606/421/398 607/357/398 609/357/398 608/421/398
f 611/318/399 610/422/399 612/422/399 613/318/399
f 615/318/400 614/422/400 616/422/400 617/318/400
f 618/421/401 619/357/401 621/357/401 620/421/401
f 623/422/402 622/421/402 624/421/402 625/422/402
f 627/422/403 626/421/403 628/421/403 629/422/403
f 630/318/404 629/422/404 631/422/404 632/318/404
f 634/318/405 633/422/405 635/422/405 636/318/405
f 638/421/406 637/357/406 640/357/406 639/421/406
f 641/421/407 642/357/407 644/357/407 643/421/407
f 646/422/408 645/421/408 647/421/408 648/422/408
f 648/422/409 647/421/409 649/421/409 650/422/409
f 658/423/410 657/424/410 659/423/410
f 656/425/411 655/426/411 659/425/411
f 654/427/412 653/422/412 659/427/412
f 652/421/413 651/428/413 659/421/413
f 661/428/414 660/357/414 666/428/414
f 663/427/415 662/422/415 666/427/415
f 665/311/416 664/425/416 666/311/416
f 668/429/417 667/430/417 672/430/417 671/429/417
f 669/36/418 670/268/418 671/268/418 672/36/418
f 673/431/419 700/432/419 677/433/419 678/434/419
f 676/435/420 675/436/420 681/437/420 682/438/420
f 674/439/421 701/7/421 679/440/421 680/441/421
f 679/440/422 678/434/422 683/442/422 684/443/422
f 687/444/423 686/445/423 689/446/423 690/198/423
f 688/447/424 685/448/424 692/449/424
f 691/450/425 690/200/425 694/451/425 695/452/425
f 694/451/426 693/453/426 696/454/426 697/455/426
f 699/456/427 698/457/427 674/439/427 675/436/427
f 702/431/428 729/432/428 705/433/428 706/434/428
f 704/436/429 703/439/429 708/441/429 709/437/429
f 708/441/430 707/440/430 710/443/430 711/458/430
f 714/459/431 713/460/431 717/461/431 718/462/431
f 718/463/432 717/450/432 722/452/432 723/464/432
f 716/200/433 715/465/433 720/453/433 721/451/433
f 722/452/434 721/451/434 726/455/434 727/457/434
f 720/453/435 719/449/435 724/466/435 725/454/435
f 726/455/436 725/454/436 702/431/436 730/7/436
f 724/466/437 712/467/437 729/432/437
f 728/456/438 727/457/438 703/439/438 704/436/438
f 732/429/439 731/430/439 736/430/439 735/429/439
f 733/36/440 734/268/440 735/268/440 736/36/440
f 740/268/339 738/274/339 737/235/339 739/36/339
f 743/419/441 744/413/441 742/369/441 741/420/441
f 745/369/442 746/413/442 748/413/442 747/369/442
f 751/419/443 752/413/443 750/369/443 749/420/443
f 753/369/442 754/413/442 756/413/442 755/369/442
f 760/268/339 758/274/339 757/235/339 759/36/339
f 763/419/444 764/413/444 762/369/444 761/420/444
f 766/413/445 765/311/445 767/311/445 768/413/445
f 769/468/446 770/357/446 772/416/446 771/274/446
f 773/369/447 774/413/447 776/413/447 775/369/447
f 780/268/339 778/274/339 777/235/339 779/36/339
f 783/419/448 784/413/448 782/369/448 781/420/448
f 785/369/449 786/413/449 788/413/449 787/369/449
f 789/468/450 790/357/450 792/416/450 791/274/450
f 793/418/451 794/311/451 796/413/451 795/419/451
f 798/413/452 797/311/452 799/311/452 800/413/452
f 808/423/410 807/424/410 809/423/410
f 806/425/453 805/426/453 809/425/453
f 804/427/454 803/422/454 809/427/454
f 802/421/413 801/428/413 809/421/413
f 812/422/455 811/303/455 816/422/455
f 810/369/456 815/423/456 816/369/456
f 814/311/416 813/425/416 816/311/416
f 818/318/457 817/422/457 819/422/457 820/318/457
f 822/318/458 821/422/458 823/422/458 824/318/458
f 824/318/459 823/422/459 825/422/459 826/318/459
f 828/318/460 827/422/460 829/422/460 830/318/460
f 832/422/461 831/421/461 833/421/461 834/422/461
f 836/422/462 835/421/462 837/421/462 838/422/462
f 838/422/463 837/421/463 839/421/463 840/422/463
f 842/422/464 841/421/464 843/421/464 844/422/464
f 848/268/339 846/274/339 845/235/339 847/36/339
f 849/418/465 850/311/465 852/413/465 851/419/465
f 854/413/466 853/311/466 855/311/466 856/413/466
f 857/468/467 858/357/467 860/416/467 859/274/467
f 861/369/468 862/413/468 864/413/468 863/369/468
