# Blender 5.1.1
# www.blender.org
mtllib box-building.mtl
o Cube
v -0.538802 0.013013 1.000000
v -0.538802 4.423228 1.000000
v -0.538802 0.013013 -1.000000
v -0.538802 4.423228 -1.000000
v 0.538802 0.013013 1.000000
v 0.538802 4.423228 1.000000
v 0.538802 0.013013 -1.000000
v 0.538802 4.423228 -1.000000
vn -1.0000 -0.0000 -0.0000
vn -0.0000 -0.0000 -1.0000
vn 1.0000 -0.0000 -0.0000
vn -0.0000 -0.0000 1.0000
vn -0.0000 -1.0000 -0.0000
vn -0.0000 1.0000 -0.0000
vt 0.000000 0.726746
vt 1.000000 0.726746
vt 1.000000 0.273254
vt 0.000000 0.273254
vt 0.377829 0.000000
vt 0.377829 1.000000
vt 0.622171 1.000000
vt 0.622171 0.000000
vt 0.377829 0.273254
vt 0.622171 0.273254
vt 0.622171 0.726746
vt 0.377829 0.726746
s 0
usemtl base
f 1/1/1 2/2/1 4/3/1 3/4/1
f 3/5/2 4/6/2 8/7/2 7/8/2
f 7/4/3 8/3/3 6/2/3 5/1/3
f 5/8/4 6/7/4 2/6/4 1/5/4
f 3/9/5 7/10/5 5/11/5 1/12/5
f 8/10/6 4/9/6 2/12/6 6/11/6
o Cube.001
v -1.000000 -1.000000 4.671000
v -1.000000 1.000000 4.671000
v -1.000000 -1.000000 2.671000
v -1.000000 1.000000 2.671000
v 1.000000 -1.000000 4.671000
v 1.000000 1.000000 4.671000
v 1.000000 -1.000000 2.671000
v 1.000000 1.000000 2.671000
vn -1.0000 -0.0000 -0.0000
vn -0.0000 -0.0000 -1.0000
vn 1.0000 -0.0000 -0.0000
vn -0.0000 -0.0000 1.0000
vn -0.0000 -1.0000 -0.0000
vn -0.0000 1.0000 -0.0000
vt 0.375000 0.000000
vt 0.625000 0.000000
vt 0.625000 0.250000
vt 0.375000 0.250000
vt 0.625000 0.500000
vt 0.375000 0.500000
vt 0.625000 0.750000
vt 0.375000 0.750000
vt 0.625000 1.000000
vt 0.375000 1.000000
vt 0.125000 0.500000
vt 0.125000 0.750000
vt 0.875000 0.500000
vt 0.875000 0.750000
s 0
usemtl base
f 9/13/7 10/14/7 12/15/7 11/16/7
f 11/16/8 12/15/8 16/17/8 15/18/8
f 15/18/9 16/17/9 14/19/9 13/20/9
f 13/20/10 14/19/10 10/21/10 9/22/10
f 11/23/11 15/18/11 13/20/11 9/24/11
f 16/17/12 12/25/12 10/26/12 14/19/12
o Cube.002
v 2.966642 -0.001045 0.986864
v 2.966642 4.409170 0.986863
v 2.966642 -0.001045 -1.013136
v 2.966642 4.409170 -1.013137
v 4.044246 -0.001045 0.986864
v 4.044246 4.409170 0.986863
v 4.044246 -0.001045 -1.013136
v 4.044246 4.409170 -1.013137
vn -1.0000 -0.0000 -0.0000
vn -0.0000 -0.0000 -1.0000
vn 1.0000 -0.0000 -0.0000
vn -0.0000 -0.0000 1.0000
vn -0.0000 -1.0000 -0.0000
vn -0.0000 1.0000 -0.0000
vt 0.000000 0.687998
vt 0.000000 0.000000
vt 0.312002 0.000000
vt 0.312002 0.687998
vt 0.792112 0.000000
vt 0.792112 0.687998
vt 0.624004 0.687998
vt 0.624004 0.000000
vt 0.624004 0.000000
vt 0.624004 0.687998
vt 0.312002 0.687998
vt 0.312002 0.000000
vt 0.960219 0.000000
vt 0.960219 0.687998
vt 0.168107 1.000000
vt 0.000000 1.000000
vt 0.000000 0.687998
vt 0.168107 0.687998
vt 0.336215 1.000000
vt 0.336215 0.687998
s 0
usemtl base
f 17/27/13 18/28/13 20/29/13 19/30/13
f 19/31/14 20/32/14 24/33/14 23/34/14
f 23/35/15 24/36/15 22/37/15 21/38/15
f 21/39/16 22/40/16 18/32/16 17/31/16
f 19/41/17 23/42/17 21/43/17 17/44/17
f 24/45/18 20/41/18 18/44/18 22/46/18
